<svg width="20" height="20" viewBox="0 0 20 20" fill="none" xmlns="http://www.w3.org/2000/svg">
<path d="M10.9252 0.0107422C12.0639 1.65994 12.9513 3.4692 13.5582 5.37919C14.947 5.16132 16.2847 4.69274 17.5059 3.99638L17.8643 3.77414C16.1641 1.62251 13.656 0.262212 10.9252 0.0107422Z" fill="#ACB1BF"/>
<path d="M12.5087 6.98926C11.6758 7.08465 10.8381 7.13253 9.99977 7.13261C9.1614 7.13249 8.32374 7.08465 7.49083 6.98926C7.31388 7.743 7.20118 8.51039 7.15393 9.28315H12.8457C12.7984 8.51039 12.6857 7.743 12.5087 6.98926Z" fill="#ACB1BF"/>
<path d="M9.99978 14.3011C9.29346 14.3017 8.58765 14.3383 7.88507 14.4108C8.40191 15.9541 9.11252 17.4255 9.99978 18.79C10.887 17.4255 11.5976 15.954 12.1145 14.4108C11.4119 14.3383 10.7061 14.3017 9.99978 14.3011Z" fill="#ACB1BF"/>
<path d="M14.2735 10.7169C14.2298 11.5627 14.1155 12.4034 13.9316 13.2301C15.4578 13.4837 16.9256 14.0112 18.2642 14.7871L18.6692 15.0395C19.438 13.7196 19.8932 12.2406 19.9997 10.7169H14.2735Z" fill="#ACB1BF"/>
<path d="M18.6692 4.96124L18.2642 5.21359C16.9259 5.99081 15.4581 6.5195 13.9316 6.77416C14.1152 7.59952 14.2296 8.43873 14.2735 9.28311H19.9997C19.8931 7.75959 19.4379 6.28097 18.6692 4.96124Z" fill="#ACB1BF"/>
<path d="M7.15387 10.7169C7.20154 11.4897 7.31474 12.2571 7.4922 13.0108C9.15941 12.8203 10.8429 12.8203 12.5101 13.0108C12.6866 12.257 12.7989 11.4896 12.8456 10.7169H7.15387Z" fill="#ACB1BF"/>
<path d="M1.73547 5.21359L1.33044 4.96124C0.561786 6.28097 0.106603 7.75959 0 9.28311H5.72618C5.77012 8.43873 5.88449 7.59947 6.06813 6.77416C4.54163 6.5195 3.07376 5.99081 1.73547 5.21359Z" fill="#ACB1BF"/>
<path d="M6.44188 14.6215C5.05318 14.8395 3.71561 15.3078 2.49421 16.0036L2.1358 16.2266C3.83582 18.3783 6.34414 19.7384 9.07486 19.9893C7.936 18.3404 7.04865 16.5314 6.44188 14.6215Z" fill="#ACB1BF"/>
<path d="M9.99978 1.21075C9.11264 2.575 8.40208 4.04623 7.88507 5.58924C8.58761 5.66207 9.29346 5.69866 9.99978 5.69891C10.7061 5.69866 11.4119 5.66203 12.1145 5.58924C11.5975 4.04623 10.8869 2.575 9.99978 1.21075Z" fill="#ACB1BF"/>
<path d="M17.5056 16.0036C16.2842 15.3077 14.9467 14.8395 13.558 14.6215C12.9506 16.5314 12.0625 18.3405 10.9229 19.9892C13.6536 19.7383 16.1619 18.3782 17.8619 16.2265L17.5056 16.0036Z" fill="#ACB1BF"/>
<path d="M2.13812 3.7742L2.49439 3.99644C3.71562 4.6928 5.05323 5.16134 6.44205 5.37925C7.04962 3.46909 7.93773 1.65987 9.07718 0.0108032C6.34646 0.262231 3.83831 1.62253 2.13812 3.7742Z" fill="#ACB1BF"/>
<path d="M5.72618 10.7169H0C0.106477 12.2406 0.56166 13.7196 1.33048 15.0395L1.73551 14.7871C3.07405 14.0112 4.54188 13.4837 6.06813 13.2301C5.8842 12.4034 5.76983 11.5627 5.72618 10.7169Z" fill="#ACB1BF"/>
</svg>
