<svg width="95" height="91" viewBox="0 0 95 91" fill="none" xmlns="http://www.w3.org/2000/svg">
<path d="M91.1163 27.9246L71.9634 21.4324C71.2682 21.1978 70.5138 21.5711 70.2786 22.2686C70.0436 22.966 70.4169 23.7227 71.1123 23.9584L90.0822 30.3887L81.1527 34.755C80.782 34.5042 80.3659 34.3117 79.9147 34.1935L53.1308 27.1727C52.2795 22.7798 46.8867 20.936 43.5744 24.0624C42.4279 25.1445 41.7705 26.6704 41.7705 28.249V28.2781C41.7798 30.1368 43.3137 31.6489 45.1899 31.6489H49.8142C51.0083 31.6489 52.2026 31.0239 52.8219 29.8474L77.7996 36.3948C69.9074 40.254 52.1902 48.9175 49.9317 50.022C48.3374 50.8014 46.5612 50.7502 45.072 50.022L4.92132 30.3887L45.7265 16.5569C46.8711 16.1687 48.1324 16.1687 49.2771 16.5569L65.2084 21.9573C65.904 22.1928 66.6581 21.819 66.8932 21.1212C67.1282 20.4237 66.755 19.6671 66.0596 19.4314L50.1282 14.031C48.4344 13.457 46.5692 13.457 44.8753 14.031L3.88725 27.9246C1.7096 28.6633 1.51306 31.6883 3.58279 32.7002L24.6182 42.9863C23.461 48.5044 21.6941 54.4452 19.7738 59.7181C18.9877 61.8745 19.665 64.2734 21.4588 65.6875C27.5294 70.4729 34.7021 74.1697 42.0536 76.546C45.5083 77.6624 49.3605 77.7054 52.9492 76.546C60.303 74.1686 67.4765 70.4705 73.5439 65.6875C75.3442 64.2679 76.0123 61.868 75.2289 59.7181C73.3491 54.5621 71.5582 48.5826 70.3846 42.9868L80.2794 38.1485V58.2123C78.5882 58.3422 77.2509 59.7608 77.2509 61.4897V65.3745C77.2509 65.9516 77.5008 66.4701 77.896 66.8313L77.4023 74.3183C77.3059 75.7809 78.4654 77.0241 79.9275 77.0241H83.29C84.7513 77.0241 85.9114 75.7815 85.815 74.3183L85.3214 66.8313C85.7166 66.4701 85.9665 65.9518 85.9665 65.3745V61.4895C85.9665 59.7606 84.629 58.342 82.9379 58.2121V38.1195C82.9379 37.7098 82.8735 37.3129 82.7587 36.9361L91.4208 32.7004C93.4878 31.6896 93.2975 28.6643 91.1163 27.9246V27.9246ZM49.8142 28.9827H45.1899C44.7793 28.9827 44.4307 28.6539 44.4287 28.2714V28.249C44.4287 27.3901 44.7722 26.5929 45.3962 26.0039C47.3103 24.1971 50.447 25.4976 50.5713 28.0963C50.6009 28.7186 50.2014 28.9827 49.8142 28.9827V28.9827ZM71.2358 56.2912C64.0546 61.9282 53.8635 65.9607 50.3531 66.6319C49.632 66.7698 49.159 67.468 49.2965 68.1911C49.4341 68.9145 50.1321 69.3889 50.8511 69.2508C54.5229 68.5485 64.583 64.6273 72.1352 58.9588C72.3209 59.4901 72.536 60.095 72.7322 60.6334C73.1221 61.7034 72.788 62.8918 71.9012 63.5912C64.7434 69.2334 57.2008 72.3702 52.1338 74.0078C49.1073 74.9862 45.8201 74.9621 42.869 74.0078C37.802 72.37 30.2594 69.2334 23.1016 63.5912C22.215 62.8921 21.8804 61.7039 22.2708 60.6332C22.2786 60.6118 22.2862 60.5902 22.294 60.5688C22.4872 60.0381 22.7013 59.4357 22.8677 58.9585C30.2414 64.4913 40.274 68.5096 44.1505 69.2513C44.8725 69.3889 45.5677 68.9148 45.7052 68.1918C45.8427 67.4685 45.3698 66.7703 44.6488 66.6324C41.3349 65.9988 31.1088 62.0516 23.767 56.291C24.8465 52.9802 26.0973 48.7253 27.0805 44.1904L43.907 52.4182C46.1474 53.5138 48.7688 53.5566 51.0967 52.4182L67.9222 44.1907C68.9054 48.7255 70.1562 52.9804 71.2358 56.2912V56.2912ZM80.0636 74.3577L80.5259 67.3477H82.6912L83.1534 74.3577H80.0636ZM83.3081 61.4894V64.6813H79.9092V61.4894C79.9092 61.1511 80.194 60.8653 80.5314 60.8653H82.6857C83.0229 60.8655 83.3081 61.1511 83.3081 61.4894V61.4894Z" fill="#2575E6" stroke="#2575E6" stroke-width="0.5"/>
</svg>
