<svg width="88" height="88" viewBox="0 0 88 88" fill="none" xmlns="http://www.w3.org/2000/svg">
<path d="M68.1289 79.4839H79.4837V82.3226H68.1289V79.4839Z" fill="#2575E6"/>
<path d="M85.1613 73.8064V26.9677C85.1613 23.0548 81.9774 19.871 78.0645 19.871H73.8064C73.8064 8.91324 64.8932 0 53.9355 0C42.9778 0 34.0645 8.91324 34.0645 19.871H9.93548C6.02256 19.871 2.83871 23.0548 2.83871 26.9677V73.8064H0V80.9032C0 84.8162 3.18385 88 7.09677 88H80.9032C84.8162 88 88 84.8162 88 80.9032V73.8064H85.1613ZM78.0645 22.7097C80.4119 22.7097 82.3226 24.6204 82.3226 26.9677V73.8064H79.4839V28.3871C79.4839 26.8215 78.2107 25.5484 76.6452 25.5484H72.9693C73.243 24.6287 73.4405 23.6792 73.5791 22.7097H78.0645ZM37.7279 14.6551L52.7927 20.9327L57.951 36.4049C56.6605 36.7189 55.3209 36.9032 53.9355 36.9032C44.5433 36.9032 36.9032 29.2631 36.9032 19.871C36.9032 18.051 37.1971 16.2997 37.7279 14.6551V14.6551ZM60.6476 35.5192L55.5593 20.2542L66.928 8.88483C69.443 11.8531 70.9677 15.685 70.9677 19.871C70.9677 26.8797 66.7097 32.9092 60.6476 35.5192ZM53.9355 2.83871C58.1215 2.83871 61.9533 4.36341 64.923 6.87708L53.6049 18.1945L38.8278 12.0389C41.6679 6.58046 47.3682 2.83871 53.9355 2.83871ZM5.67742 26.9677C5.67742 24.6204 7.58814 22.7097 9.93548 22.7097H34.2918C34.4304 23.6792 34.6266 24.6287 34.9017 25.5484H11.3548C9.78925 25.5484 8.51613 26.8215 8.51613 28.3871V73.8064H5.67742V26.9677ZM85.1613 80.9032C85.1613 83.2506 83.2506 85.1613 80.9032 85.1613H7.09677C4.74943 85.1613 2.83871 83.2506 2.83871 80.9032V76.6452H32.0803C34.1213 78.4803 36.7327 79.4839 39.4994 79.4839H48.502C51.2686 79.4839 53.88 78.4803 55.9211 76.6452H73.8064V73.8064H54.7671L54.3513 74.2223C52.7885 75.7851 50.7121 76.6452 48.5006 76.6452H39.498C37.2879 76.6452 35.2101 75.7851 33.6473 74.2223L33.2329 73.8064H11.3548V28.3871H36.0092C39.2069 35.0895 46.0285 39.7419 53.9355 39.7419C61.8424 39.7419 68.6641 35.0895 71.8618 28.3871H76.6452V76.6452H85.1613V80.9032Z" fill="#2575E6"/>
<path d="M69.5501 59.6129C68.679 59.6129 67.8681 59.8783 67.1924 60.3295L62.2406 56.6169C62.3667 56.2149 62.4534 55.7963 62.4534 55.3548C62.4534 53.0075 60.5427 51.0968 58.1953 51.0968C55.848 51.0968 53.9372 53.0075 53.9372 55.3548C53.9372 55.8434 54.0364 56.3057 54.1881 56.743L46.2389 63.1031C45.5874 62.697 44.8251 62.4516 44.0018 62.4516C43.0467 62.4516 42.1735 62.7794 41.4624 63.3117L35.3422 59.231C35.4274 58.8977 35.4856 58.5539 35.4856 58.1935C35.4856 55.8462 33.5749 53.9355 31.2276 53.9355C28.8802 53.9355 26.9695 55.8462 26.9695 58.1935C26.9695 58.5539 27.0277 58.8977 27.113 59.231L20.9927 63.3117C20.2816 62.778 19.4084 62.4516 18.4534 62.4516C16.106 62.4516 14.1953 64.3623 14.1953 66.7097C14.1953 69.057 16.106 70.9677 18.4534 70.9677C20.8007 70.9677 22.7114 69.057 22.7114 66.7097C22.7114 66.3493 22.6532 66.0055 22.568 65.6722L28.6883 61.5915C29.3993 62.1252 30.2726 62.4516 31.2276 62.4516C32.1826 62.4516 33.0558 62.1252 33.7669 61.5915L39.8872 65.6722C39.8019 66.0055 39.7437 66.3507 39.7437 66.7097C39.7437 69.057 41.6544 70.9677 44.0018 70.9677C46.3491 70.9677 48.2598 69.057 48.2598 66.7097C48.2598 66.2211 48.1607 65.7588 48.0089 65.3215L55.9582 58.9614C56.6096 59.3676 57.372 59.6129 58.1953 59.6129C59.0665 59.6129 59.8773 59.3475 60.553 58.8963L65.5048 62.6089C65.3787 63.0109 65.2921 63.4295 65.2921 63.871C65.2921 66.2183 67.2028 68.129 69.5501 68.129C71.8975 68.129 73.8082 66.2183 73.8082 63.871C73.8082 61.5236 71.8975 59.6129 69.5501 59.6129V59.6129ZM18.4534 68.129C17.6716 68.129 17.034 67.4914 17.034 66.7097C17.034 65.9279 17.6716 65.2903 18.4534 65.2903C19.2351 65.2903 19.8727 65.9279 19.8727 66.7097C19.8727 67.4914 19.2351 68.129 18.4534 68.129ZM31.2276 59.6129C30.4458 59.6129 29.8082 58.9753 29.8082 58.1935C29.8082 57.4118 30.4458 56.7742 31.2276 56.7742C32.0093 56.7742 32.6469 57.4118 32.6469 58.1935C32.6469 58.9753 32.0093 59.6129 31.2276 59.6129ZM44.0018 68.129C43.22 68.129 42.5824 67.4914 42.5824 66.7097C42.5824 65.9279 43.22 65.2903 44.0018 65.2903C44.7835 65.2903 45.4211 65.9279 45.4211 66.7097C45.4211 67.4914 44.7835 68.129 44.0018 68.129ZM58.1953 56.7742C57.4136 56.7742 56.776 56.1366 56.776 55.3548C56.776 54.5731 57.4136 53.9355 58.1953 53.9355C58.9771 53.9355 59.6147 54.5731 59.6147 55.3548C59.6147 56.1366 58.9771 56.7742 58.1953 56.7742ZM69.5501 65.2903C68.7684 65.2903 68.1308 64.6527 68.1308 63.871C68.1308 63.0892 68.7684 62.4516 69.5501 62.4516C70.3319 62.4516 70.9695 63.0892 70.9695 63.871C70.9695 64.6527 70.3319 65.2903 69.5501 65.2903Z" fill="#2575E6"/>
<path d="M36.905 31.2258H14.1953V51.0968H36.905V31.2258ZM34.0663 48.2581H17.034V34.0645H34.0663V48.2581Z" fill="#2575E6"/>
<path d="M19.8711 36.9032H31.2259V39.7419H19.8711V36.9032Z" fill="#2575E6"/>
<path d="M19.8711 42.5806H31.2259V45.4194H19.8711V42.5806Z" fill="#2575E6"/>
<path d="M45.418 45.4193H73.8051V48.2581H45.418V45.4193Z" fill="#2575E6"/>
</svg>
