<svg width="17" height="17" viewBox="0 0 17 17" fill="none" xmlns="http://www.w3.org/2000/svg">
<g clip-path="url(#clip0)">
<path d="M16.5629 14.4505L13.5612 11.4481C12.9957 12.278 12.2779 12.9958 11.448 13.5613L14.4501 16.5633C14.7414 16.8546 15.1238 17 15.5065 17C15.8893 17 16.2716 16.8546 16.5629 16.5633C17.1456 15.9806 17.1456 15.0331 16.5629 14.4505Z" fill="#1F1F1F"/>
<path d="M6.97266 0C3.12787 0 0 3.12787 0 6.97266C0 10.8174 3.12787 13.9453 6.97266 13.9453C10.8174 13.9453 13.9453 10.8174 13.9453 6.97266C13.9453 3.12787 10.8174 0 6.97266 0ZM6.97266 11.9531C4.22659 11.9531 1.99219 9.71872 1.99219 6.97266C1.99219 4.22659 4.22659 1.99219 6.97266 1.99219C9.71872 1.99219 11.9531 4.22659 11.9531 6.97266C11.9531 9.71872 9.71872 11.9531 6.97266 11.9531Z" fill="#1F1F1F"/>
</g>
<defs>
<clipPath id="clip0">
<rect width="17" height="17" fill="white"/>
</clipPath>
</defs>
</svg>
