<svg width="70" height="70" viewBox="0 0 70 70" fill="none" xmlns="http://www.w3.org/2000/svg">
<g clip-path="url(#clip0)">
<path d="M24.8445 50.1504C24.7457 50.1222 24.6445 50.1063 24.5427 50.1009C26.0403 48.5268 26.9626 46.4004 26.9626 44.0615V36.8685C26.9626 36.8028 26.9563 36.7387 26.9474 36.6755C26.9564 36.5456 26.9626 36.4149 26.9626 36.2828V31.732C26.9626 30.9769 26.3505 30.3648 25.5954 30.3648H16.4253C12.5636 30.3648 9.42211 33.5065 9.42211 37.368V44.0615C9.42211 46.4004 10.3443 48.5268 11.842 50.1009C11.7403 50.1063 11.6391 50.1222 11.5404 50.1504C5.07951 50.7354 0 56.181 0 62.7917V68.6328C0 69.3879 0.61209 70 1.36719 70H35.0174C35.7725 70 36.3846 69.3879 36.3846 68.6328V62.7917C36.3846 56.1812 31.3053 50.7355 24.8445 50.1504ZM12.1565 39.1017V37.3678C12.1565 35.0141 14.0715 33.0991 16.4253 33.0991H24.2282V36.2827C24.2282 37.8855 22.9243 39.1893 21.3216 39.1893H12.1565V39.1017ZM12.1565 41.9237H21.3216C22.3841 41.9237 23.3788 41.6281 24.2282 41.1152V44.0613C24.2282 47.3895 21.5205 50.0972 18.1923 50.0972C14.8642 50.0972 12.1565 47.3895 12.1565 44.0613V41.9237ZM21.168 52.8317L18.1923 55.8075L15.2167 52.8317H21.168ZM33.6503 67.2656H2.73438V64.5313H8.4082C9.1633 64.5313 9.77539 63.9192 9.77539 63.1641C9.77539 62.409 9.1633 61.7969 8.4082 61.7969H2.78428C3.24352 57.1873 6.85932 53.4957 11.4324 52.9144L17.2256 58.7076C17.482 58.9639 17.8298 59.108 18.1923 59.108C18.5549 59.108 18.9027 58.9639 19.1591 58.7076L24.9523 52.9144C29.8501 53.5369 33.6503 57.7275 33.6503 62.7917V67.2656Z" fill="#2575E6"/>
<path d="M58.4582 19.7857C58.3594 19.7575 58.2581 19.7416 58.1561 19.7362C59.6537 18.1621 60.5759 16.0357 60.5759 13.6968V6.50371C60.5759 6.43795 60.5696 6.37383 60.5607 6.31066C60.5697 6.18078 60.5759 6.05008 60.5759 5.91801V1.36719C60.5759 0.61209 59.9638 0 59.2087 0H50.0385C46.1769 0 43.0354 3.14166 43.0354 7.00314V13.6966C43.0354 16.0356 43.9576 18.162 45.4552 19.736C45.3533 19.7415 45.2519 19.7574 45.153 19.7855C38.6924 20.3708 33.6133 25.8165 33.6133 32.4268V38.2679C33.6133 39.023 34.2254 39.635 34.9805 39.635H45.9809C46.736 39.635 47.3481 39.023 47.3481 38.2679C47.3481 37.5128 46.736 36.9007 45.9809 36.9007H36.3477V32.427C36.3477 27.3628 40.1478 23.1722 45.0456 22.5497L50.8388 28.3429C51.1058 28.6099 51.4556 28.7433 51.8055 28.7433C52.1554 28.7433 52.5054 28.6099 52.7722 28.3429L58.5654 22.5497C63.4635 23.1723 67.2636 27.3628 67.2636 32.427V36.9008H57.1919C56.4368 36.9008 55.8248 37.5129 55.8248 38.268C55.8248 39.0231 56.4368 39.6352 57.1919 39.6352H68.6308C69.3859 39.6352 69.998 39.0231 69.998 38.268V32.427C69.998 25.8166 64.9187 20.371 58.4582 19.7857ZM51.8058 25.4427L48.8301 22.467H54.7815L51.8058 25.4427ZM57.8416 13.6966C57.8416 17.0248 55.1339 19.7325 51.8058 19.7325C48.4776 19.7325 45.7699 17.0249 45.7699 13.6968V11.559H54.935C55.9976 11.559 56.9922 11.2633 57.8416 10.7505V13.6966V13.6966ZM57.8416 5.91801C57.8416 7.52076 56.5377 8.82465 54.935 8.82465H45.7699V8.73701V7.00314C45.7699 4.64939 47.6849 2.73438 50.0387 2.73438H57.8416V5.91801Z" fill="#2575E6"/>
<path d="M36.5593 19.1309L30.8416 13.4132V6.83594C30.8416 3.0666 27.775 0 24.0056 0H6.83594C3.0666 0 0 3.0666 0 6.83594V18.8672C0 22.6365 3.0666 25.7031 6.83594 25.7031H24.0055C26.832 25.7031 29.2968 24.0069 30.3309 21.4648H35.5924C36.1453 21.4648 36.6439 21.1317 36.8555 20.6209C37.0672 20.1101 36.9502 19.5219 36.5593 19.1309ZM29.3336 18.7305C28.6966 18.7305 28.144 19.1703 28.0011 19.7911C27.5707 21.662 25.9278 22.9688 24.0055 22.9688H6.83594C4.57434 22.9688 2.73438 21.1288 2.73438 18.8672V6.83594C2.73438 4.57434 4.57434 2.73438 6.83594 2.73438H24.0055C26.2671 2.73438 28.107 4.57434 28.107 6.83594V13.9795C28.107 14.3421 28.2512 14.6899 28.5075 14.9462L32.2917 18.7305H29.3336Z" fill="#2575E6"/>
<path d="M63.1628 44.2969H45.9932C43.1667 44.2969 40.7019 45.9931 39.6678 48.5352H34.4063C33.8534 48.5352 33.3548 48.8683 33.1432 49.3791C32.9315 49.8899 33.0486 50.4781 33.4395 50.8691L39.1572 56.5868V63.1641C39.1572 66.9334 42.2238 70 45.9931 70H63.1628C66.9321 70 69.9987 66.9334 69.9987 63.1641V51.1328C69.9987 47.3635 66.9321 44.2969 63.1628 44.2969ZM67.2643 63.1641C67.2643 65.4257 65.4244 67.2656 63.1628 67.2656H45.9932C43.7316 67.2656 41.8917 65.4257 41.8917 63.1641V56.0205C41.8917 55.6579 41.7476 55.3101 41.4912 55.0538L37.707 51.2695H40.6652C41.3021 51.2695 41.8548 50.8297 41.9976 50.2089C42.428 48.338 44.071 47.0312 45.9932 47.0312H63.1628C65.4244 47.0312 67.2643 48.8712 67.2643 51.1328V63.1641Z" fill="#2575E6"/>
<path d="M60.7245 53.5106C60.1908 52.9767 59.3251 52.9767 58.7912 53.5106L55.1568 57.145L53.4668 55.455C52.933 54.9212 52.0673 54.9212 51.5332 55.455C50.9993 55.9889 50.9993 56.8546 51.5332 57.3887L54.1899 60.0454C54.457 60.3124 54.8068 60.4458 55.1567 60.4458C55.5065 60.4458 55.8565 60.3124 56.1234 60.0454L60.7245 55.4442C61.2584 54.9104 61.2584 54.0447 60.7245 53.5106Z" fill="#2575E6"/>
<path d="M21.637 9.06008C21.4754 6.71576 19.5856 4.82604 17.2413 4.66444C15.912 4.57297 14.6449 5.02141 13.6742 5.92758C12.717 6.82104 12.168 8.08432 12.168 9.39326C12.1681 10.1485 12.7802 10.7606 13.5353 10.7606C14.2904 10.7606 14.9025 10.1485 14.9025 9.3934C14.9025 8.83135 15.1289 8.31045 15.5401 7.92654C15.9507 7.54319 16.4887 7.35287 17.0535 7.39252C18.0432 7.46074 18.8409 8.2585 18.9092 9.2482C18.9782 10.2488 18.3222 11.1331 17.3495 11.3508C16.2847 11.589 15.5411 12.5147 15.5411 13.6019V14.3313C15.5411 15.0864 16.1532 15.6985 16.9083 15.6985C17.6634 15.6985 18.2755 15.0864 18.2755 14.3313V13.9334C20.3938 13.3015 21.7917 11.3045 21.637 9.06008Z" fill="#2575E6"/>
<path d="M17.8729 18.5965C17.6186 18.3422 17.2658 18.1959 16.9062 18.1959C16.5453 18.1959 16.1939 18.3422 15.9396 18.5965C15.684 18.8508 15.5391 19.2035 15.5391 19.5631C15.5391 19.9227 15.684 20.2754 15.9396 20.5297C16.1939 20.784 16.5453 20.9303 16.9062 20.9303C17.2658 20.9303 17.6186 20.784 17.8729 20.5297C18.1271 20.2754 18.2734 19.9227 18.2734 19.5631C18.2734 19.2035 18.1271 18.8508 17.8729 18.5965Z" fill="#2575E6"/>
</g>
<defs>
<clipPath id="clip0">
<rect width="70" height="70" fill="white"/>
</clipPath>
</defs>
</svg>
