<svg width="68" height="68" viewBox="0 0 68 68" fill="none" xmlns="http://www.w3.org/2000/svg">
<g clip-path="url(#clip0)">
<path d="M62.6875 0.000976562H5.3125C2.38319 0.000976562 0 2.38416 0 5.31348V47.0276C0 49.9569 2.38319 52.3401 5.3125 52.3401H26.1641V59.0069C22.2684 59.3865 19.2136 62.6792 19.2136 66.6727C19.2136 67.4062 19.8082 68.0008 20.5417 68.0008H47.4584C48.1919 68.0008 48.7865 67.4062 48.7865 66.6727C48.7865 62.5889 45.5917 59.2389 41.5704 58.9866V52.3401H47.7684C48.5019 52.3401 49.0965 51.7455 49.0965 51.012C49.0965 50.2785 48.5019 49.6839 47.7684 49.6839H5.3125C3.84784 49.6839 2.65625 48.4923 2.65625 47.0276V5.31348C2.65625 3.84882 3.84784 2.65723 5.3125 2.65723H62.6875C64.1522 2.65723 65.3438 3.84882 65.3438 5.31348V47.0276C65.3438 48.4923 64.1522 49.6839 62.6875 49.6839H53.7292C52.9957 49.6839 52.4011 50.2785 52.4011 51.012C52.4011 51.7455 52.9957 52.3401 53.7292 52.3401H62.6875C65.6168 52.3401 68 49.9569 68 47.0276V5.31348C68 2.38403 65.6168 0.000976562 62.6875 0.000976562ZM28.8203 52.3401H38.9141V58.9697H28.8203V52.3401ZM41.0833 61.626C43.4067 61.626 45.3685 63.2041 45.953 65.3447H22.047C22.6314 63.2041 24.5932 61.626 26.9166 61.626H41.0833Z" fill="#2575E6"/>
<path d="M10.375 6H57.625C60.0374 6 62 7.82124 62 10.0601V41.9399C62 44.1787 60.0374 46 57.625 46H21.5417C20.9376 46 20.448 45.5456 20.448 44.985C20.448 44.4244 20.9376 43.97 21.5417 43.97H57.625C58.8312 43.97 59.8125 43.0593 59.8125 41.9399V10.0601C59.8125 8.9407 58.8312 8.03003 57.625 8.03003H10.375C9.16881 8.03003 8.1875 8.9407 8.1875 10.0601V41.9399C8.1875 43.0593 9.16881 43.97 10.375 43.97H15.3387C15.9428 43.97 16.4324 44.4244 16.4324 44.985C16.4324 45.5456 15.9428 46 15.3387 46H10.375C7.96263 46 6 44.1787 6 41.9399V10.0601C6 7.82134 7.96263 6 10.375 6Z" fill="#2575E6"/>
<path d="M10.375 46C7.96263 46 6 44.1787 6 41.9399V10.0601C6 7.82134 7.96263 6 10.375 6H57.625C60.0374 6 62 7.82124 62 10.0601V41.9399C62 44.1787 60.0374 46 57.625 46H21.5417C20.9376 46 20.448 45.5456 20.448 44.985C20.448 44.4244 20.9376 43.97 21.5417 43.97H57.625C58.8312 43.97 59.8125 43.0593 59.8125 41.9399V10.0601C59.8125 8.9407 58.8312 8.03003 57.625 8.03003H10.375C9.16881 8.03003 8.1875 8.9407 8.1875 10.0601V41.9399C8.1875 43.0593 9.16881 43.97 10.375 43.97H15.3387C15.9428 43.97 16.4324 44.4244 16.4324 44.985C16.4324 45.5456 15.9428 46 15.3387 46H10.2345" stroke="#2575E6" stroke-width="0.6"/>
<path d="M38.3149 23.2501C38.3149 22.6618 37.838 22.1848 37.2496 22.1848H26.2768C25.6884 22.1848 25.2114 22.6618 25.2114 23.2501C25.2114 23.8385 25.6884 24.3155 26.2768 24.3155H37.2496C37.838 24.3155 38.3149 23.8385 38.3149 23.2501Z" fill="#2575E6" stroke="#2575E6" stroke-width="0.5"/>
<path d="M26.2768 26.4463C25.6884 26.4463 25.2114 26.9232 25.2114 27.5116C25.2114 28.1 25.6884 28.5769 26.2768 28.5769H32.941C33.5293 28.5769 34.0063 28.1 34.0063 27.5116C34.0063 26.9232 33.5293 26.4463 32.941 26.4463H26.2768Z" fill="#2575E6" stroke="#2575E6" stroke-width="0.5"/>
<path d="M28.7805 36.6732H25.2176C24.0428 36.6732 23.087 35.7174 23.087 34.5425V15.7928C23.087 14.618 24.0428 13.6621 25.2176 13.6621H38.3152C39.49 13.6621 40.4459 14.618 40.4459 15.7928V22.3446C40.4459 22.9329 40.9228 23.4099 41.5112 23.4099C42.0996 23.4099 42.5765 22.9329 42.5765 22.3446V15.7928C42.5765 13.4431 40.6649 11.5315 38.3152 11.5315H25.2176C22.8679 11.5315 20.9563 13.4431 20.9563 15.7928V34.5425C20.9563 36.8922 22.8679 38.8038 25.2176 38.8038H28.7805C29.3689 38.8038 29.8459 38.3269 29.8459 37.7385C29.8459 37.1501 29.3689 36.6732 28.7805 36.6732Z" fill="#2575E6" stroke="#2575E6" stroke-width="0.5"/>
<path d="M37.2496 17.9238H26.2768C25.6884 17.9238 25.2114 18.4008 25.2114 18.9892C25.2114 19.5775 25.6884 20.0545 26.2768 20.0545H37.2496C37.838 20.0545 38.3149 19.5775 38.3149 18.9892C38.3149 18.4008 37.838 17.9238 37.2496 17.9238Z" fill="#2575E6"/>
<path fill-rule="evenodd" clip-rule="evenodd" d="M40.9527 38.2057C43.2649 38.2057 45.1392 36.3313 45.1392 34.0191C45.1392 31.7069 43.2649 29.8326 40.9527 29.8326C38.6405 29.8326 36.7662 31.7069 36.7662 34.0191C36.7662 36.3313 38.6405 38.2057 40.9527 38.2057ZM40.9527 39.9999C44.2558 39.9999 46.9335 37.3222 46.9335 34.0191C46.9335 30.716 44.2558 28.0383 40.9527 28.0383C37.6496 28.0383 34.9719 30.716 34.9719 34.0191C34.9719 37.3222 37.6496 39.9999 40.9527 39.9999Z" fill="#2575E6" stroke="#2575E6" stroke-width="0.5"/>
<path fill-rule="evenodd" clip-rule="evenodd" d="M43.2732 32.3192C43.6174 32.6756 43.6074 33.2436 43.2509 33.5877L41.0207 35.7408C40.673 36.0764 40.122 36.0764 39.7744 35.7407L38.5358 34.5445C38.1794 34.2003 38.1695 33.6324 38.5136 33.276C38.8578 32.9196 39.4258 32.9097 39.7822 33.2539L40.3977 33.8483L42.0047 32.2969C42.3612 31.9527 42.9291 31.9627 43.2732 32.3192Z" fill="#2575E6"/>
</g>
<defs>
<clipPath id="clip0">
<rect width="68" height="68" fill="white"/>
</clipPath>
</defs>
</svg>
