<svg width="68" height="68" viewBox="0 0 68 68" fill="none" xmlns="http://www.w3.org/2000/svg">
<path d="M66.6719 35.3281H60.8281V24.1858C60.8281 21.0967 58.6379 18.3759 55.6201 17.7163L51.2792 16.7672C52.7703 15.4883 53.7176 13.5928 53.7176 11.479V6.96761C53.7176 3.12561 50.592 0 46.75 0C42.908 0 39.7824 3.12561 39.7824 6.96761V11.4791C39.7824 13.5902 40.7274 15.4835 42.2151 16.7624L37.8751 17.7143C34.8602 18.3757 32.6719 21.0962 32.6719 24.1829V30.0156H25.5C24.7666 30.0156 24.1719 30.6104 24.1719 31.3438V35.3281H14.875V31.6094H20.4531C21.1865 31.6094 21.7812 31.0146 21.7812 30.2812V15.9375C21.7812 15.2041 21.1865 14.6094 20.4531 14.6094H1.32812C0.594734 14.6094 0 15.2041 0 15.9375V30.2812C0 31.0146 0.594734 31.6094 1.32812 31.6094H6.90625V35.3281H1.32812C0.594734 35.3281 0 35.9229 0 36.6562V43.0312C0 43.7646 0.594734 44.3594 1.32812 44.3594H5.84375V66.6719C5.84375 67.4053 6.43848 68 7.17188 68H60.8281C61.5615 68 62.1562 67.4053 62.1562 66.6719V60.1641C62.1562 59.4307 61.5615 58.8359 60.8281 58.8359C60.0947 58.8359 59.5 59.4307 59.5 60.1641V65.3438H8.5V49.9352H25.5C26.2334 49.9352 26.8281 49.3405 26.8281 48.6071C26.8281 47.8737 26.2334 47.279 25.5 47.279H8.5V44.3594H59.5V49.5391C59.5 50.2725 60.0947 50.8672 60.8281 50.8672C61.5615 50.8672 62.1562 50.2725 62.1562 49.5391V44.3594H66.6719C67.4053 44.3594 68 43.7646 68 43.0312V36.6562C68 35.9229 67.4053 35.3281 66.6719 35.3281ZM42.4386 10.5381H44.2661C46.7199 10.5381 49.0636 9.82401 51.0614 8.49535V11.4791C51.0614 13.8563 49.1272 15.7905 46.75 15.7905C44.3728 15.7905 42.4386 13.8563 42.4386 11.4791V10.5381ZM46.75 18.4467C47.1636 18.4467 47.5683 18.4085 47.9622 18.339L46.7337 21.1052L45.5024 18.3328C45.9076 18.4062 46.3241 18.4467 46.75 18.4467ZM46.75 2.65625C48.5645 2.65625 50.1196 3.78356 50.7548 5.37399C48.9753 6.99444 46.689 7.88189 44.2661 7.88189H42.4386V6.96761C42.4386 4.5904 44.3728 2.65625 46.75 2.65625ZM35.3281 24.1829C35.3281 22.3343 36.6387 20.7049 38.4444 20.3088L43.0273 19.3035L45.52 24.9163C45.7331 25.3961 46.2089 25.7053 46.7339 25.7053C47.2589 25.7053 47.7347 25.3961 47.9478 24.9163L50.4409 19.3028L55.0532 20.3113C56.8601 20.7064 58.1719 22.3359 58.1719 24.1858V35.3281H43.8281V31.3438C43.8281 30.6104 43.2334 30.0156 42.5 30.0156H35.3281V24.1829ZM26.8281 32.6719H41.1719V35.3281H34H26.8281V32.6719ZM2.65625 17.2656H19.125V28.9531H14.8541C14.649 26.9474 12.9497 25.3774 10.8906 25.3774C8.8315 25.3774 7.13243 26.9474 6.9271 28.9531H2.65625V17.2656ZM9.5625 29.3618C9.5625 28.6295 10.1583 28.0337 10.8906 28.0337C11.623 28.0337 12.2188 28.6295 12.2188 29.3618V35.3281H9.5625V29.3618ZM65.3438 41.7031H2.65625V37.9844H65.3438V41.7031Z" fill="#2575E6"/>
</svg>
