<svg width="75" height="75" viewBox="0 0 75 75" fill="none" xmlns="http://www.w3.org/2000/svg">
<g clip-path="url(#clip0)">
<path d="M56.6794 20.88C57.2197 20.6043 57.4345 19.9426 57.1586 19.4021L51.8191 8.93534C51.6284 8.56225 51.2298 8.31762 50.7913 8.33783C50.3937 8.35556 50.0366 8.59243 49.862 8.93534L44.5226 19.4021C44.2468 19.9426 44.4615 20.6043 45.0019 20.88C45.5424 21.1555 46.2041 20.9411 46.4798 20.4005L48.1282 17.1691H53.5529L55.2013 20.4005C55.4773 20.9415 56.1394 21.1555 56.6794 20.88V20.88ZM49.2491 14.972L50.8406 11.8521L52.4322 14.972H49.2491Z" fill="#2575E6" stroke="#2575E6" stroke-width="0.5"/>
<path d="M53.8291 8.92437H54.8344V9.9297C54.8344 10.5364 55.3262 11.0283 55.9331 11.0283C56.5399 11.0283 57.0317 10.5364 57.0317 9.9297V8.92437H58.0369C58.6437 8.92437 59.1355 8.43248 59.1355 7.82574C59.1355 7.219 58.6437 6.72711 58.0369 6.72711H57.0317V5.72179C57.0317 5.11505 56.5399 4.62315 55.9331 4.62315C55.3262 4.62315 54.8344 5.11505 54.8344 5.72179V6.72711H53.8291C53.2222 6.72711 52.7305 7.219 52.7305 7.82574C52.7305 8.43248 53.2224 8.92437 53.8291 8.92437V8.92437Z" fill="#2575E6" stroke="#2575E6" stroke-width="0.5"/>
<path d="M26.0971 25.7044C24.8624 24.4696 22.8637 24.4691 21.6287 25.7043L20.4919 26.841L20.4845 26.8337C19.2497 25.5988 17.2512 25.5985 16.0162 26.8337C14.7815 28.0681 14.7807 30.067 16.016 31.302L18.2577 33.5437C19.4925 34.7786 21.4912 34.7787 22.7262 33.5437L26.0971 30.1728C27.3289 28.9407 27.3289 26.9362 26.0971 25.7044V25.7044ZM24.5432 28.619L21.1723 31.9899C20.7964 32.3661 20.1873 32.3661 19.8114 31.9899L17.5696 29.7483C17.1936 29.3721 17.1935 28.7638 17.5698 28.3873C17.9451 28.0119 18.5536 28.0104 18.9306 28.3873L19.7149 29.1716C20.144 29.6006 20.8396 29.6006 21.2685 29.1716L23.1822 27.258C23.5579 26.8822 24.1672 26.8819 24.543 27.258C24.9185 27.6332 24.9185 28.2437 24.5432 28.619V28.619Z" fill="#2575E6" stroke="#2575E6" stroke-width="0.5"/>
<path d="M26.0971 36.5961C24.8624 35.3612 22.8637 35.3607 21.6287 36.5961L20.4919 37.7328L20.4845 37.7254C19.2498 36.4907 17.251 36.4903 16.0162 37.7254C14.7815 38.9599 14.7807 40.9588 16.016 42.1938L18.2577 44.4355C19.4925 45.6703 21.491 45.6703 22.7262 44.4355L26.0971 41.0646C27.3289 39.8323 27.3289 37.828 26.0971 36.5961V36.5961ZM24.5432 39.5107L21.1723 42.8816C20.7964 43.2576 20.1873 43.2577 19.8114 42.8816L17.5696 40.6399C17.1936 40.2637 17.1935 39.6554 17.5698 39.2789C17.9449 38.9036 18.5536 38.902 18.9306 39.2789L19.7149 40.0632C20.144 40.4922 20.8396 40.4922 21.2685 40.0632L23.1822 38.1497C23.5579 37.7738 24.1672 37.7735 24.543 38.1497C24.9185 38.525 24.9185 39.1355 24.5432 39.5107Z" fill="#2575E6" stroke="#2575E6" stroke-width="0.5"/>
<path d="M26.0971 47.4878C24.8624 46.253 22.8637 46.2525 21.6287 47.4877L20.4919 48.6244L20.4845 48.6171C19.2497 47.3822 17.2512 47.3819 16.0162 48.6171C14.7815 49.8515 14.7807 51.8504 16.016 53.0854L18.2577 55.3271C19.4925 56.5619 21.4912 56.5621 22.7262 55.3271L26.0971 51.9562C27.3289 50.7241 27.3289 48.7198 26.0971 47.4878ZM24.5432 50.4024L21.1723 53.7733C20.7964 54.1495 20.1873 54.1495 19.8114 53.7733L17.5696 51.5317C17.1936 51.1555 17.1935 50.5472 17.5698 50.1707C17.9451 49.7953 18.5536 49.7938 18.9306 50.1707L19.7149 50.955C20.144 51.384 20.8396 51.384 21.2685 50.955L23.1822 49.0414C23.5579 48.6656 24.1672 48.6653 24.543 49.0414C24.9185 49.4167 24.9185 50.0271 24.5432 50.4024Z" fill="#2575E6" stroke="#2575E6" stroke-width="0.5"/>
<path d="M50.9607 39.7167C50.9607 38.356 49.8535 37.2489 48.4929 37.2489H31.9092C30.5485 37.2489 29.4414 38.356 29.4414 39.7167V41.3144C29.4414 42.6751 30.5485 43.7822 31.9092 43.7822H48.493C49.8537 43.7822 50.9608 42.6751 50.9608 41.3144V39.7167H50.9607ZM48.7634 41.3144C48.7634 41.4635 48.6421 41.585 48.4929 41.585H31.9092C31.7599 41.585 31.6387 41.4635 31.6387 41.3144V39.7167C31.6387 39.5676 31.7599 39.4462 31.9092 39.4462H48.493C48.6423 39.4462 48.7636 39.5676 48.7636 39.7167V41.3144H48.7634Z" fill="#2575E6" stroke="#2575E6" stroke-width="0.5"/>
<path d="M50.9607 50.6085C50.9607 49.2478 49.8535 48.1407 48.4929 48.1407H31.9092C30.5485 48.1407 29.4414 49.2478 29.4414 50.6085V52.2062C29.4414 53.5669 30.5485 54.674 31.9092 54.674H48.493C49.8537 54.674 50.9608 53.5669 50.9608 52.2062V50.6085H50.9607ZM48.7634 52.206C48.7634 52.3552 48.6421 52.4766 48.4929 52.4766H31.9092C31.7599 52.4766 31.6387 52.3552 31.6387 52.206V50.6085C31.6387 50.4594 31.7599 50.3379 31.9092 50.3379H48.493C48.6423 50.3379 48.7636 50.4594 48.7636 50.6085V52.206H48.7634Z" fill="#2575E6" stroke="#2575E6" stroke-width="0.5"/>
<path d="M21.6287 58.3794L20.4919 59.516L20.4845 59.5087C19.2497 58.2738 17.2512 58.2735 16.0162 59.5087C14.7815 60.7431 14.7807 62.742 16.016 63.977L18.2577 66.2187C19.4925 67.4536 21.4912 67.4537 22.7262 66.2187L26.0971 62.8478C27.3289 61.6159 27.3289 59.6114 26.0971 58.3796C24.8624 57.1447 22.8636 57.1441 21.6287 58.3794V58.3794ZM24.5432 61.2942L21.1723 64.6651C20.7964 65.0413 20.1873 65.0413 19.8114 64.6651L17.5696 62.4234C17.1936 62.0473 17.1935 61.4389 17.5698 61.0624C17.9451 60.687 18.5536 60.6855 18.9306 61.0624L19.7149 61.8467C20.1437 62.2755 20.8396 62.2758 21.2685 61.8467L23.1822 59.9332C23.5579 59.5573 24.1672 59.557 24.543 59.9332C24.9185 60.3083 24.9185 60.9189 24.5432 61.2942Z" fill="#2575E6" stroke="#2575E6" stroke-width="0.5"/>
<path d="M48.493 63.3683H42.6411C42.0343 63.3683 41.5425 63.8602 41.5425 64.467C41.5425 65.0737 42.0343 65.5656 42.6411 65.5656H48.493C49.8537 65.5656 50.9608 64.4585 50.9608 63.0978V61.5001C50.9608 60.1394 49.8537 59.0323 48.493 59.0323H31.9092C30.5485 59.0323 29.4414 60.1394 29.4414 61.5001V63.0978C29.4414 64.4585 30.5485 65.5656 31.9092 65.5656H37.5142C38.1211 65.5656 38.6129 65.0737 38.6129 64.467C38.6129 63.8602 38.1211 63.3683 37.5142 63.3683H31.9092C31.7599 63.3683 31.6387 63.2469 31.6387 63.0978V61.5001C31.6387 61.351 31.7599 61.2295 31.9092 61.2295H48.493C48.6423 61.2295 48.7636 61.351 48.7636 61.5001V63.0978C48.7634 63.247 48.6421 63.3683 48.493 63.3683Z" fill="#2575E6" stroke="#2575E6" stroke-width="0.5"/>
<path d="M55.4088 44.1405C56.0157 44.1405 56.5074 43.6486 56.5074 43.0419V26.535C61.7281 24.603 65.4596 19.5744 65.4596 13.6903C65.4596 6.14146 59.318 0 51.7691 0C47.4541 0 43.5997 2.00726 41.0886 5.13629H20.1895C19.9119 5.13629 19.6256 5.24513 19.4126 5.45811L9.86465 15.006C9.65225 15.2183 9.54297 15.5029 9.54297 15.7828V71.7485C9.54297 73.5413 11.0015 75 12.7943 75H53.2559C55.0487 75 56.5074 73.5413 56.5074 71.7485V48.1688C56.5074 47.5621 56.0157 47.0702 55.4088 47.0702C54.8019 47.0702 54.3101 47.5621 54.3101 48.1688V71.7485C54.3101 72.3298 53.8372 72.8027 53.2559 72.8027H12.7943C12.2131 72.8027 11.7402 72.3298 11.7402 71.7485V16.8815H18.0367C19.8295 16.8815 21.288 15.4229 21.288 13.6301V7.33354H39.6413C38.6968 9.12693 38.1692 11.1034 38.0901 13.1586C37.868 19.0405 41.384 24.2207 46.5773 26.3572H31.9077C30.5471 26.3572 29.4399 27.4643 29.4399 28.825V30.4227C29.4399 31.7833 30.5471 32.8905 31.9077 32.8905H48.4915C49.8522 32.8905 50.9593 31.7833 50.9593 30.4227V28.825C50.9593 28.2565 50.7641 27.7337 50.4399 27.316C50.8775 27.3584 51.3209 27.3808 51.7692 27.3808C52.6243 27.3808 53.4909 27.2979 54.3103 27.1436V43.042C54.3101 43.6488 54.802 44.1405 55.4088 44.1405V44.1405ZM19.0909 13.6301C19.0909 14.2114 18.6179 14.6842 18.0368 14.6842H13.294L19.0909 8.88728V13.6301ZM48.7619 30.4227C48.7619 30.5718 48.6407 30.6932 48.4914 30.6932H31.9077C31.7585 30.6932 31.6372 30.5718 31.6372 30.4227V28.825C31.6372 28.6758 31.7585 28.5544 31.9077 28.5544H48.4915C48.6408 28.5544 48.7621 28.6758 48.7621 28.825V30.4227H48.7619ZM51.7692 25.1835C45.4319 25.1835 40.2762 20.0278 40.2762 13.6905C40.2762 7.36342 45.4226 2.19739 51.7692 2.19739C58.1067 2.19739 63.2625 7.35316 63.2625 13.6905C63.2625 20.0218 58.1114 25.1835 51.7692 25.1835Z" fill="#2575E6" stroke="#2575E6" stroke-width="0.5"/>
</g>
<defs>
<clipPath id="clip0">
<rect width="75" height="75" fill="white"/>
</clipPath>
</defs>
</svg>
