<svg width="68" height="68" viewBox="0 0 68 68" fill="none" xmlns="http://www.w3.org/2000/svg">
<path d="M59.5 34.2792C60.2335 34.2792 60.8281 33.6846 60.8281 32.951V11.9531C60.8281 8.29148 57.8491 5.3125 54.1875 5.3125H45.8485C45.3037 2.29606 42.6607 0 39.4895 0H28.5103C25.3393 0 22.6962 2.29606 22.1515 5.3125H13.8125C10.1509 5.3125 7.17188 8.29148 7.17188 11.9531V61.3594C7.17188 65.021 10.1509 68 13.8125 68H54.1875C57.8491 68 60.8281 65.021 60.8281 61.3594V44.0854C60.8281 43.3519 60.2335 42.7573 59.5 42.7573C58.7665 42.7573 58.1719 43.3519 58.1719 44.0854V61.3594C58.1719 63.5564 56.3845 65.3438 54.1875 65.3438H13.8125C11.6155 65.3438 9.82812 63.5564 9.82812 61.3594V11.9531C9.82812 9.75614 11.6155 7.96875 13.8125 7.96875H22.0469V10.625H15.1406C13.676 10.625 12.4844 11.8166 12.4844 13.2812V60.0312C12.4844 61.4959 13.676 62.6875 15.1406 62.6875H52.8594C54.324 62.6875 55.5156 61.4959 55.5156 60.0312V13.2812C55.5156 11.8166 54.324 10.625 52.8594 10.625H45.9531V7.96875H54.1875C56.3845 7.96875 58.1719 9.75614 58.1719 11.9531V32.951C58.1719 33.6846 58.7665 34.2792 59.5 34.2792ZM24.7031 6.46359C24.7031 4.36422 26.4111 2.65625 28.5105 2.65625H39.4897C41.5889 2.65625 43.2969 4.36422 43.2969 6.46359V10.625H24.7031V6.46359ZM52.8594 13.2812L52.8611 60.0312C52.8611 60.0312 52.8606 60.0312 52.8594 60.0312H15.1406V13.2812H23.375H44.625H52.8594Z" fill="#2575E6"/>
<path d="M24.0214 17.2791C21.092 17.2791 18.7089 19.6622 18.7089 22.5916C18.7089 25.5209 21.092 27.9041 24.0214 27.9041C26.9507 27.9041 29.3339 25.5209 29.3339 22.5916C29.3339 19.6622 26.9507 17.2791 24.0214 17.2791ZM24.0214 25.2478C22.5567 25.2478 21.3651 24.0562 21.3651 22.5916C21.3651 21.1269 22.5567 19.9353 24.0214 19.9353C25.486 19.9353 26.6776 21.1269 26.6776 22.5916C26.6776 24.0562 25.486 25.2478 24.0214 25.2478Z" fill="#2575E6"/>
<path d="M47.8125 21.2634H39.0911C38.3577 21.2634 37.7629 21.858 37.7629 22.5916C37.7629 23.3251 38.3575 23.9197 39.0911 23.9197H47.8125C48.546 23.9197 49.1406 23.3251 49.1406 22.5916C49.1406 21.858 48.546 21.2634 47.8125 21.2634Z" fill="#2575E6"/>
<path d="M24.0214 31.6228C21.092 31.6228 18.7089 34.006 18.7089 36.9353C18.7089 39.8646 21.092 42.2478 24.0214 42.2478C26.9507 42.2478 29.3339 39.8646 29.3339 36.9353C29.3339 34.006 26.9507 31.6228 24.0214 31.6228ZM24.0214 39.5915C22.5567 39.5915 21.3651 38.3999 21.3651 36.9353C21.3651 35.4706 22.5567 34.279 24.0214 34.279C25.486 34.279 26.6776 35.4706 26.6776 36.9353C26.6776 38.3999 25.486 39.5915 24.0214 39.5915Z" fill="#2575E6"/>
<path d="M47.8124 35.6072H34.0167C33.2832 35.6072 32.6886 36.2018 32.6886 36.9353C32.6886 37.6688 33.2832 38.2634 34.0167 38.2634H47.8124C48.5459 38.2634 49.1405 37.6688 49.1405 36.9353C49.1405 36.2018 48.5459 35.6072 47.8124 35.6072Z" fill="#2575E6"/>
<path d="M24.0214 45.9666C21.092 45.9666 18.7089 48.3497 18.7089 51.2791C18.7089 54.2084 21.092 56.5916 24.0214 56.5916C26.9507 56.5916 29.3339 54.2084 29.3339 51.2791C29.3339 48.3497 26.9507 45.9666 24.0214 45.9666ZM24.0214 53.9353C22.5567 53.9353 21.3651 52.7437 21.3651 51.2791C21.3651 49.8144 22.5567 48.6228 24.0214 48.6228C25.486 48.6228 26.6776 49.8144 26.6776 51.2791C26.6776 52.7437 25.486 53.9353 24.0214 53.9353Z" fill="#2575E6"/>
<path d="M47.8124 49.9509H34.0167C33.2832 49.9509 32.6886 50.5455 32.6886 51.2791C32.6886 52.0126 33.2832 52.6072 34.0167 52.6072H47.8124C48.5459 52.6072 49.1405 52.0126 49.1405 51.2791C49.1405 50.5455 48.5459 49.9509 47.8124 49.9509Z" fill="#2575E6"/>
<path d="M36.8555 5.3125H31.1445C30.411 5.3125 29.8164 5.9071 29.8164 6.64062C29.8164 7.37415 30.411 7.96875 31.1445 7.96875H36.8555C37.589 7.96875 38.1836 7.37415 38.1836 6.64062C38.1836 5.9071 37.589 5.3125 36.8555 5.3125Z" fill="#2575E6"/>
</svg>
