<svg width="20" height="20" viewBox="0 0 20 20" fill="none" xmlns="http://www.w3.org/2000/svg">
<path fill-rule="evenodd" clip-rule="evenodd" d="M20 10C20 15.5228 15.5228 20 10 20C4.47715 20 0 15.5228 0 10C0 4.47715 4.47715 0 10 0C15.5228 0 20 4.47715 20 10ZM17.1655 9.87978C17.0356 9.73492 13.9122 6.32812 10 6.32812C6.08786 6.32812 2.96444 9.73492 2.83456 9.87978C2.68971 10.0417 2.68971 10.2864 2.83456 10.4483C2.96444 10.5932 6.08792 14 10 14C13.9121 14 17.0356 10.5932 17.1655 10.4483C17.3103 10.2864 17.3103 10.0417 17.1655 9.87978ZM10 13.1476C8.35507 13.1476 7.0165 11.809 7.0165 10.1641C7.0165 8.51912 8.35507 7.18055 10 7.18055C11.6449 7.18055 12.9835 8.51912 12.9835 10.1641C12.9835 11.809 11.6449 13.1476 10 13.1476ZM10.9629 8.27365C10.6391 8.50566 10.4262 8.88286 10.4262 9.31163C10.4262 10.1505 11.2365 10.7996 12.0948 10.5233C11.9227 11.527 11.052 12.2951 10 12.2951C8.82498 12.2951 7.86892 11.3391 7.86892 10.1641C7.86892 8.98904 8.82498 8.03298 10 8.03298C10.3482 8.03298 10.6723 8.12491 10.9629 8.27365Z" fill="#ACB1BF"/>
</svg>
