<svg width="17" height="17" viewBox="0 0 17 17" fill="none" xmlns="http://www.w3.org/2000/svg">
<path d="M12.3982 0H4.60174C2.0643 0 0 2.0643 0 4.60174V12.3984C0 14.9357 2.0643 17 4.60174 17H12.3984C14.9357 17 17 14.9357 17 12.3984V4.60174C17 2.0643 14.9357 0 12.3982 0V0ZM8.49998 13.1483C5.93686 13.1483 3.85169 11.0631 3.85169 8.49998C3.85169 5.93686 5.93686 3.85169 8.49998 3.85169C11.0631 3.85169 13.1483 5.93686 13.1483 8.49998C13.1483 11.0631 11.0631 13.1483 8.49998 13.1483ZM13.2594 4.94791C12.502 4.94791 11.8859 4.33183 11.8859 3.57439C11.8859 2.81694 12.502 2.20074 13.2594 2.20074C14.0169 2.20074 14.6331 2.81694 14.6331 3.57439C14.6331 4.33183 14.0169 4.94791 13.2594 4.94791Z" fill="white"/>
<path d="M8.49971 4.84814C6.48626 4.84814 4.84802 6.48625 4.84802 8.49983C4.84802 10.5133 6.48626 12.1515 8.49971 12.1515C10.5133 12.1515 12.1514 10.5133 12.1514 8.49983C12.1514 6.48625 10.5133 4.84814 8.49971 4.84814Z" fill="white"/>
<path d="M13.2594 3.19727C13.0516 3.19727 12.8824 3.36639 12.8824 3.57417C12.8824 3.78195 13.0516 3.95108 13.2594 3.95108C13.4673 3.95108 13.6364 3.78208 13.6364 3.57417C13.6364 3.36626 13.4673 3.19727 13.2594 3.19727Z" fill="white"/>
</svg>
