<svg width="68" height="68" viewBox="0 0 68 68" fill="none" xmlns="http://www.w3.org/2000/svg">
<g clip-path="url(#clip0)">
<path d="M26.0678 38.5327H3.3988C1.52429 38.5327 0 40.0582 0 41.9317V57.8006C0 59.6741 1.52429 61.1994 3.3988 61.1994H26.0678C27.9423 61.1994 29.4666 59.6739 29.4666 57.8006V41.9317C29.4667 40.0582 27.9423 38.5327 26.0678 38.5327ZM27.2 57.8005C27.2 58.425 26.6923 58.9327 26.0678 58.9327H3.3988C2.77432 58.9327 2.26658 58.425 2.26658 57.8005V41.9317C2.26658 41.3072 2.77432 40.7994 3.3988 40.7994H26.0678C26.6923 40.7994 27.2 41.3072 27.2 41.9317V57.8005Z" fill="#2575E6" stroke="#2575E6" stroke-width="0.3"/>
<path d="M28.3333 54.3994H1.13329C0.507742 54.3994 0 54.906 0 55.5327V57.8005C0 59.6739 1.52429 61.1993 3.3988 61.1993H26.0678C27.9423 61.1993 29.4666 59.6738 29.4666 57.8005V55.5327C29.4667 54.906 28.959 54.3994 28.3333 54.3994ZM27.2 57.8005C27.2 58.425 26.6923 58.9327 26.0678 58.9327H3.3988C2.77432 58.9327 2.26658 58.425 2.26658 57.8005V56.666H27.2V57.8005Z" fill="#2575E6" stroke="#2575E6" stroke-width="0.3"/>
<path d="M18.1334 58.9326H11.3334C10.7079 58.9326 10.2001 59.4392 10.2001 60.0659V66.8659C10.2001 67.4927 10.7079 67.9992 11.3334 67.9992H18.1334C18.759 67.9992 19.2667 67.4927 19.2667 66.8659V60.0659C19.2668 59.4392 18.7591 58.9326 18.1334 58.9326ZM17.0001 65.7326H12.4668V61.1993H17.0001V65.7326Z" fill="#2575E6" stroke="#2575E6" stroke-width="0.3"/>
<path d="M21.5332 65.7324H7.93322C7.30767 65.7324 6.79993 66.239 6.79993 66.8657C6.79993 67.4925 7.30767 67.999 7.93322 67.999H21.5332C22.1588 67.999 22.6665 67.4925 22.6665 66.8657C22.6666 66.239 22.1589 65.7324 21.5332 65.7324Z" fill="#2575E6" stroke="#2575E6" stroke-width="0.3"/>
<path d="M64.6014 38.5327H41.9324C40.0579 38.5327 38.5336 40.0582 38.5336 41.9315V57.8005C38.5336 59.6739 40.0579 61.1993 41.9324 61.1993H64.6014C66.4759 61.1993 68.0002 59.6738 68.0002 57.8005V41.9317C68.0002 40.0582 66.4759 38.5327 64.6014 38.5327ZM65.7334 57.8005C65.7334 58.425 65.2257 58.9327 64.6012 58.9327H41.9324C41.3079 58.9327 40.8001 58.425 40.8001 57.8005V41.9317C40.8001 41.3072 41.3079 40.7994 41.9324 40.7994H64.6014C65.2258 40.7994 65.7336 41.3072 65.7336 41.9317V57.8005H65.7334Z" fill="#2575E6" stroke="#2575E6" stroke-width="0.3"/>
<path d="M66.8669 54.3994H39.6669C39.0413 54.3994 38.5336 54.906 38.5336 55.5327V57.8005C38.5336 59.6739 40.0579 61.1993 41.9324 61.1993H64.6014C66.4759 61.1993 68.0002 59.6738 68.0002 57.8005V55.5327C68.0002 54.906 67.4924 54.3994 66.8669 54.3994ZM65.7334 57.8005C65.7334 58.425 65.2257 58.9327 64.6012 58.9327H41.9324C41.3079 58.9327 40.8001 58.425 40.8001 57.8005V56.666H65.7334V57.8005Z" fill="#2575E6" stroke="#2575E6" stroke-width="0.3"/>
<path d="M56.6669 58.9326H49.8669C49.2414 58.9326 48.7336 59.4392 48.7336 60.0659V66.8659C48.7336 67.4927 49.2414 67.9992 49.8669 67.9992H56.6669C57.2925 67.9992 57.8002 67.4927 57.8002 66.8659V60.0659C57.8002 59.4392 57.2925 58.9326 56.6669 58.9326ZM55.5335 65.7326H51.0002V61.1993H55.5335V65.7326Z" fill="#2575E6" stroke="#2575E6" stroke-width="0.3"/>
<path d="M60.0668 65.7324H46.4668C45.8412 65.7324 45.3335 66.239 45.3335 66.8657C45.3335 67.4925 45.8412 67.999 46.4668 67.999H60.0668C60.6923 67.999 61.2001 67.4925 61.2001 66.8657C61.2001 66.239 60.6923 65.7324 60.0668 65.7324Z" fill="#2575E6" stroke="#2575E6" stroke-width="0.3"/>
<path d="M45.3343 0.000488281H22.6653C20.7908 0.000488281 19.2665 1.52597 19.2665 3.39929V19.2671C19.2665 21.1405 20.7908 22.6659 22.6653 22.6659H45.3343C47.2088 22.6659 48.7331 21.1404 48.7331 19.2671V3.39943C48.7331 1.52597 47.2088 0.000488281 45.3343 0.000488281ZM46.4665 19.2672C46.4665 19.8917 45.9588 20.3994 45.3343 20.3994H22.6653C22.0409 20.3994 21.5331 19.8917 21.5331 19.2672V3.39943C21.5331 2.77494 22.0409 2.2672 22.6653 2.2672H45.3343C45.9588 2.2672 46.4665 2.77494 46.4665 3.39943V19.2672Z" fill="#2575E6" stroke="#2575E6" stroke-width="0.3"/>
<path d="M47.5998 15.8662H20.3998C19.7743 15.8662 19.2665 16.3728 19.2665 16.9995V19.2673C19.2665 21.1407 20.7908 22.6661 22.6653 22.6661H45.3343C47.2088 22.6661 48.7331 21.1406 48.7331 19.2673V16.9995C48.7331 16.3729 48.2254 15.8662 47.5998 15.8662ZM46.4665 19.2674C46.4665 19.8919 45.9588 20.3996 45.3343 20.3996H22.6653C22.0409 20.3996 21.5331 19.8919 21.5331 19.2674V18.1329H46.4664V19.2674H46.4665Z" fill="#2575E6" stroke="#2575E6" stroke-width="0.3"/>
<path d="M37.3999 20.3994H30.5999C29.9744 20.3994 29.4666 20.906 29.4666 21.5327V28.3327C29.4666 28.9594 29.9744 29.466 30.5999 29.466H37.3999C38.0254 29.466 38.5332 28.9594 38.5332 28.3327V21.5327C38.5332 20.906 38.0254 20.3994 37.3999 20.3994ZM36.2666 27.1994H31.7333V22.6661H36.2666V27.1994Z" fill="#2575E6" stroke="#2575E6" stroke-width="0.3"/>
<path d="M40.8002 27.1997H27.2002C26.5747 27.1997 26.067 27.7063 26.067 28.333C26.067 28.9597 26.5747 29.4663 27.2002 29.4663H40.8002C41.4258 29.4663 41.9335 28.9597 41.9335 28.333C41.9335 27.7063 41.4258 27.1997 40.8002 27.1997Z" fill="#2575E6" stroke="#2575E6" stroke-width="0.3"/>
<path d="M53.2665 33.9995H14.7331C14.1075 33.9995 13.5998 34.5061 13.5998 35.1328V39.6661C13.5998 40.2928 14.1075 40.7994 14.7331 40.7994C15.3586 40.7994 15.8664 40.2928 15.8664 39.6661V36.2661H52.1331V39.6661C52.1331 40.2928 52.6408 40.7994 53.2664 40.7994C53.8919 40.7994 54.3997 40.2928 54.3997 39.6661V35.1328C54.3998 34.5061 53.892 33.9995 53.2665 33.9995Z" fill="#2575E6" stroke="#2575E6" stroke-width="0.3"/>
<path d="M34.0001 30.5996C33.3746 30.5996 32.8668 31.1062 32.8668 31.7329V35.1329C32.8668 35.7596 33.3746 36.2662 34.0001 36.2662C34.6257 36.2662 35.1334 35.7596 35.1334 35.1329V31.7329C35.1334 31.1062 34.6257 30.5996 34.0001 30.5996Z" fill="#2575E6" stroke="#2575E6" stroke-width="0.3"/>
</g>
<defs>
<clipPath id="clip0">
<rect width="68" height="68" fill="white"/>
</clipPath>
</defs>
</svg>
