<svg width="88" height="70" viewBox="0 0 88 70" fill="none" xmlns="http://www.w3.org/2000/svg">
<path d="M77.6073 29.032C77.6073 29.7439 77.0303 30.3211 76.3183 30.3211C75.6064 30.3211 75.0292 29.7439 75.0292 29.032V14.999V12.4209V8.6245H19.9579H17.3798H12.9712V12.4209V14.999V52.2135H75.0292V35.0476C75.0292 34.3357 75.6062 33.7585 76.3183 33.7585C77.0303 33.7585 77.6073 34.3357 77.6073 35.0476V52.4277C77.6073 53.7312 76.5469 54.7917 75.2435 54.7917H12.7567C11.4534 54.7917 10.3929 53.7312 10.3929 52.4277V8.41035C10.3929 7.10685 11.4534 6.04639 12.7567 6.04639H75.2435C76.5469 6.04639 77.6073 7.10685 77.6073 8.41035V29.032Z" fill="#2575E6"/>
<path d="M5.93052 69.2959H82.0695C85.3396 69.2959 88 66.6151 88 63.32V59.8459C88 58.5781 86.9731 57.5469 85.7108 57.5469H81.3033C82.357 56.2741 82.9892 54.6515 82.9892 52.9207V7.9845C82.9892 3.97037 79.7234 0.70459 75.7094 0.70459H47.0078C46.2957 0.70459 45.7187 1.28174 45.7187 1.99365C45.7187 2.70555 46.2957 3.2827 47.0078 3.2827H75.7093C78.3018 3.2827 80.4109 5.39195 80.4109 7.9845V52.9205C80.4109 55.1729 78.7557 57.1447 76.5451 57.5467H11.4547C9.24409 57.1447 7.58911 55.1731 7.58911 52.9205V7.9845C7.58911 5.39195 9.69818 3.2827 12.2907 3.2827H40.992C41.7041 3.2827 42.2811 2.70555 42.2811 1.99365C42.2811 1.28174 41.7041 0.70459 40.992 0.70459H12.2909C8.27695 0.70459 5.01117 3.97037 5.01117 7.9845V52.9205C5.01117 54.6513 5.64315 56.274 6.69708 57.5467H2.28919C1.02678 57.5467 0 58.5779 0 59.8457V63.3198C0 66.615 2.66044 69.2959 5.93052 69.2959ZM32.8294 60.1248H55.1706V61.1665C55.1706 61.5967 54.8162 61.9603 54.397 61.9603H33.603C33.1838 61.9603 32.8294 61.5967 32.8294 61.1665V60.1248ZM2.57811 60.1248H30.2513V61.1665C30.2513 63.0257 31.7548 64.5384 33.603 64.5384H54.397C56.2452 64.5384 57.7487 63.0257 57.7487 61.1665V60.1248H85.4219V63.32C85.4219 65.1936 83.918 66.7177 82.0695 66.7177H5.93052C4.08202 66.7177 2.57811 65.1934 2.57811 63.32V60.1248Z" fill="#2575E6"/>
<path d="M35.958 20.0303H27.9944C26.794 20.0303 25.8174 21.0069 25.8174 22.2074V25.2027C25.8174 26.4031 26.794 27.3798 27.9944 27.3798H35.958C37.1584 27.3798 38.135 26.4031 38.135 25.2027V22.2074C38.135 21.0069 37.1584 20.0303 35.958 20.0303ZM35.5569 24.8017H28.3955V22.6084H35.5569V24.8017Z" fill="#2575E6"/>
<path d="M34.0387 39.6743H29.9141C29.202 39.6743 28.625 40.2515 28.625 40.9634C28.625 41.6753 29.202 42.2524 29.9141 42.2524H34.0387C34.7508 42.2524 35.3278 41.6753 35.3278 40.9634C35.3278 40.2515 34.7508 39.6743 34.0387 39.6743Z" fill="#2575E6"/>
<path d="M19.8721 14.7021C18.0241 14.7021 16.5205 16.2057 16.5205 18.0537V43.1475C16.5205 44.9955 18.0241 46.499 19.8721 46.499H39.2529C41.1009 46.499 42.6044 44.9955 42.6044 43.1475V18.0537C42.6044 16.2057 41.1009 14.7021 39.2529 14.7021C36.8523 14.7021 21.8271 14.7021 19.8721 14.7021ZM21.2919 43.9209H19.8721C19.4529 43.9209 19.0986 43.5667 19.0986 43.1475V18.0537C19.0986 17.6345 19.4529 17.2803 19.8721 17.2803H21.2919V43.9209ZM40.0263 18.0537V43.1475C40.0263 43.5667 39.6721 43.9209 39.2529 43.9209H23.8701V17.2803H39.2529C39.6721 17.2803 40.0263 17.6343 40.0263 18.0537Z" fill="#2575E6"/>
<path d="M64.0973 19.1768C64.8094 19.1768 65.3864 18.5996 65.3864 17.8877C65.3864 17.1758 64.8094 16.5986 64.0973 16.5986H53.9473C53.2352 16.5986 52.6582 17.1758 52.6582 17.8877C52.6582 18.5996 53.2352 19.1768 53.9473 19.1768H64.0973Z" fill="#2575E6"/>
<path d="M69.1722 21.686H48.8721C48.16 21.686 47.583 22.2632 47.583 22.9751C47.583 23.687 48.16 24.2642 48.8721 24.2642H69.1722C69.8843 24.2642 70.4613 23.687 70.4613 22.9751C70.4613 22.2632 69.8843 21.686 69.1722 21.686Z" fill="#2575E6"/>
<path d="M69.1722 26.7734H48.8721C48.16 26.7734 47.583 27.3506 47.583 28.0625C47.583 28.7744 48.16 29.3516 48.8721 29.3516H69.1722C69.8843 29.3516 70.4613 28.7744 70.4613 28.0625C70.4613 27.3506 69.8843 26.7734 69.1722 26.7734Z" fill="#2575E6"/>
<path d="M69.1722 31.8608H48.8721C48.16 31.8608 47.583 32.438 47.583 33.1499C47.583 33.8618 48.16 34.439 48.8721 34.439H69.1722C69.8843 34.439 70.4613 33.8618 70.4613 33.1499C70.4613 32.438 69.8843 31.8608 69.1722 31.8608Z" fill="#2575E6"/>
<path d="M69.1722 36.9482H48.8721C48.16 36.9482 47.583 37.5254 47.583 38.2373C47.583 38.9492 48.16 39.5264 48.8721 39.5264H69.1722C69.8843 39.5264 70.4613 38.9492 70.4613 38.2373C70.4613 37.5254 69.8843 36.9482 69.1722 36.9482Z" fill="#2575E6"/>
<path d="M69.1722 42.0361H48.8721C48.16 42.0361 47.583 42.6133 47.583 43.3252C47.583 44.0371 48.16 44.6143 48.8721 44.6143H69.1722C69.8843 44.6143 70.4613 44.0371 70.4613 43.3252C70.4613 42.6133 69.8843 42.0361 69.1722 42.0361Z" fill="#2575E6"/>
</svg>
