<svg width="101" height="54" viewBox="0 0 101 54" fill="none" xmlns="http://www.w3.org/2000/svg">
<rect x="0.5" y="0.5" width="100" height="53" rx="4.5" stroke="#ACB1BF"/>
<path d="M34.2398 31V29.208C34.8185 29.292 35.2525 29.1753 35.5418 28.858C35.8312 28.5407 35.9758 27.92 35.9758 26.996V21.2H42.6398V31H40.7218V23.048H37.8938V26.94C37.8938 27.7893 37.7912 28.5033 37.5858 29.082C37.3805 29.6607 37.0958 30.09 36.7318 30.37C36.3772 30.65 35.9945 30.8367 35.5838 30.93C35.1825 31.0233 34.7345 31.0467 34.2398 31ZM50.7568 30.132C50.0381 30.8413 49.1608 31.196 48.1248 31.196C47.0888 31.196 46.2114 30.8413 45.4928 30.132C44.7834 29.4133 44.4288 28.536 44.4288 27.5C44.4288 26.464 44.7834 25.5913 45.4928 24.882C46.2114 24.1633 47.0888 23.804 48.1248 23.804C49.1608 23.804 50.0381 24.1633 50.7568 24.882C51.4754 25.5913 51.8348 26.464 51.8348 27.5C51.8348 28.536 51.4754 29.4133 50.7568 30.132ZM46.7668 28.886C47.1308 29.25 47.5834 29.432 48.1248 29.432C48.6661 29.432 49.1188 29.25 49.4828 28.886C49.8468 28.522 50.0288 28.06 50.0288 27.5C50.0288 26.94 49.8468 26.478 49.4828 26.114C49.1188 25.75 48.6661 25.568 48.1248 25.568C47.5834 25.568 47.1308 25.75 46.7668 26.114C46.4121 26.478 46.2348 26.94 46.2348 27.5C46.2348 28.06 46.4121 28.522 46.7668 28.886ZM58.3133 24V25.736H55.3313V31H53.5253V24H58.3133ZM65.3917 30.132C64.673 30.8413 63.7957 31.196 62.7597 31.196C61.7237 31.196 60.8463 30.8413 60.1277 30.132C59.4183 29.4133 59.0637 28.536 59.0637 27.5C59.0637 26.464 59.4183 25.5913 60.1277 24.882C60.8463 24.1633 61.7237 23.804 62.7597 23.804C63.7957 23.804 64.673 24.1633 65.3917 24.882C66.1103 25.5913 66.4697 26.464 66.4697 27.5C66.4697 28.536 66.1103 29.4133 65.3917 30.132ZM61.4017 28.886C61.7657 29.25 62.2183 29.432 62.7597 29.432C63.301 29.432 63.7537 29.25 64.1177 28.886C64.4817 28.522 64.6637 28.06 64.6637 27.5C64.6637 26.94 64.4817 26.478 64.1177 26.114C63.7537 25.75 63.301 25.568 62.7597 25.568C62.2183 25.568 61.7657 25.75 61.4017 26.114C61.047 26.478 60.8697 26.94 60.8697 27.5C60.8697 28.06 61.047 28.522 61.4017 28.886Z" fill="#ACB1BF"/>
</svg>
