<svg width="68" height="68" viewBox="0 0 68 68" fill="none" xmlns="http://www.w3.org/2000/svg">
<g clip-path="url(#clip0)">
<path d="M55.2518 57.375H33.3754V52.461H41.9706C46.5672 52.461 50.899 50.661 54.1676 47.3925C57.436 44.124 59.2361 39.7922 59.2361 35.1953C59.2361 30.5986 57.436 26.2669 54.1676 22.9984C50.8991 19.73 46.5675 17.9299 41.9706 17.9299H40.0125C39.0542 16.6562 37.649 15.7369 36.0318 15.4073V14.6095C36.0318 12.8781 34.9213 11.4019 33.3755 10.8537V7.60933C34.1681 7.14914 34.7036 6.29316 34.7036 5.31248V1.32812C34.7036 0.594732 34.109 0 33.3755 0H18.7662C18.0327 0 17.4381 0.594732 17.4381 1.32812V5.31248C17.4381 6.29316 17.9736 7.14914 18.7662 7.60933V10.8537C17.2204 11.4019 16.11 12.8781 16.11 14.6095V29.2189C16.11 30.9504 17.2204 32.4266 18.7662 32.9748V35.8596C18.7662 37.3241 19.9578 38.5157 21.4224 38.5157H30.7193C32.1839 38.5157 33.3755 37.3241 33.3755 35.8596V32.9748C34.9213 32.4266 36.0318 30.9504 36.0318 29.2189V28.4212C37.649 28.0916 39.0542 27.1723 40.0125 25.8986H41.9706C44.4394 25.8986 46.7701 26.8697 48.5332 28.6328C50.2963 30.3957 51.2673 32.7265 51.2673 35.1954C51.2673 37.6643 50.2963 39.995 48.5332 41.7581C46.7701 43.5212 44.4394 44.4921 41.9706 44.4921H32.047C31.3135 44.4921 30.7189 45.0869 30.7189 45.8203C30.7189 46.5537 31.3135 47.1484 32.047 47.1484H41.9706C42.7029 47.1484 43.2987 47.7442 43.2987 48.4765C43.2987 49.209 42.7029 49.8048 41.9706 49.8048H12.7521C12.0197 49.8048 11.424 49.209 11.424 48.4765C11.424 47.7442 12.0197 47.1484 12.7521 47.1484H20.0938C20.8273 47.1484 21.4219 46.5537 21.4219 45.8203C21.4219 45.0869 20.8273 44.4921 20.0938 44.4921H12.7521C10.5551 44.4921 8.76771 46.2795 8.76771 48.4765C8.76771 50.6736 10.5551 52.461 12.7521 52.461H18.7662V57.375H12.7519C10.555 57.375 8.76758 59.1624 8.76758 61.3594V66.6719C8.76758 67.4053 9.36218 68 10.0957 68H57.908C58.6414 68 59.2361 67.4053 59.2361 66.6719V61.3594C59.2361 59.1624 57.4487 57.375 55.2518 57.375V57.375ZM21.4223 10.6252V7.96872H30.7191V10.6252H21.4223ZM20.0943 2.65624H32.0474V5.31248H20.0943V2.65624ZM21.4224 35.8596V33.2033H30.7193V35.8595L21.4224 35.8596ZM32.0474 30.547H20.0943C19.362 30.547 18.7662 29.9512 18.7662 29.2189V14.6095C18.7662 13.8771 19.362 13.2815 20.0943 13.2815H32.0474C32.7797 13.2815 33.3755 13.8771 33.3755 14.6095V15.4073C30.3482 16.0243 28.063 18.7072 28.063 21.9142C28.063 25.1213 30.3481 27.8042 33.3755 28.4212V29.2189C33.3755 29.9512 32.7797 30.547 32.0474 30.547ZM34.7036 25.8986C32.5067 25.8986 30.7193 24.1112 30.7193 21.9142C30.7193 19.7173 32.5067 17.9299 34.7036 17.9299C36.9006 17.9299 38.688 19.7173 38.688 21.9142C38.688 24.1112 36.9006 25.8986 34.7036 25.8986ZM45.4929 46.617C47.3258 46.0494 49.0093 45.0385 50.4114 43.6363C52.6763 41.3715 53.9235 38.3738 53.9235 35.1954C53.9235 32.017 52.6761 29.0193 50.4116 26.7544C48.1466 24.4896 45.149 23.2424 41.9706 23.2424H41.2106C41.2981 22.8131 41.3442 22.369 41.3442 21.9142C41.3442 21.4595 41.2981 21.0154 41.2106 20.5861H41.9706C45.858 20.5861 49.5225 22.1099 52.2893 24.8767C55.0561 27.6435 56.5799 31.3082 56.5799 35.1953C56.5799 39.0828 55.0561 42.7474 52.2893 45.5141C50.4739 47.3295 48.272 48.6097 45.8743 49.2755C45.927 49.0173 45.9549 48.75 45.9549 48.4764C45.9549 47.8053 45.7873 47.1726 45.4929 46.617V46.617ZM21.4224 52.461H30.7191V57.375H21.4224V52.461ZM56.5799 65.3438H11.4238V61.3594C11.4238 60.6271 12.0196 60.0313 12.7519 60.0313H55.2518C55.9841 60.0313 56.5799 60.6271 56.5799 61.3594V65.3438Z" fill="#2575E6"/>
<path d="M27.4009 45.8203C27.4009 45.0869 26.8063 44.4921 26.0728 44.4921H26.0717C25.3382 44.4921 24.7441 45.0869 24.7441 45.8203C24.7441 46.5536 25.3393 47.1484 26.0728 47.1484C26.8063 47.1484 27.4009 46.5536 27.4009 45.8203V45.8203Z" fill="#2575E6"/>
</g>
<defs>
<clipPath id="clip0">
<rect width="68" height="68" fill="white"/>
</clipPath>
</defs>
</svg>
