<svg width="68" height="68" viewBox="0 0 68 68" fill="none" xmlns="http://www.w3.org/2000/svg">
<g clip-path="url(#clip0)">
<path d="M67.5259 58.6754C66.5113 56.0663 63.9969 54.3496 61.1974 54.3546C61.1227 54.3546 61.0502 54.3636 60.971 54.3659L59.0904 45.9051C60.4993 45.48 61.8215 44.808 62.9953 43.9204C63.0474 43.8887 63.0969 43.8532 63.1436 43.814C68.5839 39.6166 69.5915 31.8039 65.3941 26.3636C61.1967 20.9234 53.384 19.9157 47.9437 24.1131C47.8182 24.2099 47.6945 24.3091 47.5728 24.4107L43.5898 20.4277C47.9934 15.1442 47.28 7.29109 41.9962 2.88749C36.7125 -1.51611 28.8596 -0.802698 24.456 4.48103C20.6066 9.09975 20.6066 15.8092 24.456 20.4279L20.473 24.4109C15.2197 19.9818 7.37056 20.6501 2.94148 25.9034C-1.4876 31.1567 -0.819327 39.0058 4.43398 43.4349C4.58838 43.5651 4.74603 43.6916 4.90666 43.8141C4.95124 43.8533 4.99893 43.889 5.04932 43.9206C6.2231 44.8082 7.54534 45.4801 8.9542 45.9053L7.07931 54.366C7.00572 54.366 6.93326 54.3547 6.85288 54.3547C3.08867 54.3422 0.0271171 57.3836 0.0145216 61.1478C0.00206764 64.912 3.04338 67.9735 6.80759 67.9861C10.5718 67.9986 13.6333 64.9573 13.6459 61.1931C13.6553 58.3712 11.9249 55.8355 9.29385 54.8155L11.1744 46.3547C12.6056 46.5151 14.0541 46.4169 15.4506 46.0649L19.1676 55.3578C15.9823 57.3165 14.9881 61.4863 16.9467 64.6715C18.9052 67.8568 23.0751 68.851 26.2604 66.8924C29.4456 64.9339 30.4398 60.764 28.4813 57.5787C26.9735 55.1266 24.0799 53.896 21.2678 54.5109L17.5972 45.3335C18.44 44.9527 19.2375 44.4787 19.9748 43.9206C20.0249 43.8887 20.0726 43.8531 20.1175 43.8141C25.5523 39.6354 26.5707 31.8421 22.3922 26.4072C22.2891 26.2732 22.1834 26.1414 22.075 26.0118L26.058 22.0288C26.1712 22.125 26.2958 22.2111 26.4146 22.3028C26.4592 22.342 26.5069 22.3776 26.5573 22.4092C30.9715 25.7542 37.072 25.7542 41.4862 22.4092C41.5363 22.3774 41.584 22.3417 41.6288 22.3028C41.7421 22.2111 41.87 22.125 41.9855 22.0288L45.9685 26.0118C41.5722 31.2723 42.2729 39.1006 47.5334 43.4968C47.6632 43.6053 47.7953 43.7111 47.9294 43.8141C47.974 43.8533 48.0217 43.889 48.0721 43.9206C48.81 44.4779 49.6073 44.9518 50.4496 45.3335L46.7791 54.5109C43.0986 53.701 39.4583 56.0282 38.6485 59.7088C37.8386 63.3893 40.1658 67.0296 43.8464 67.8394C47.5269 68.6492 51.1672 66.3221 51.9769 62.6415C52.6019 59.8016 51.3584 56.8776 48.8793 55.3578L52.5963 46.0649C53.9928 46.4169 55.4413 46.5151 56.8725 46.3547L58.753 54.8155C55.2645 56.1721 53.5364 60.0998 54.893 63.5883C56.2496 67.0767 60.1773 68.805 63.6658 67.4483C67.1542 66.0916 68.8825 62.1638 67.5259 58.6754ZM22.7034 56.6189C25.2045 56.6189 27.2321 58.6465 27.2321 61.1476C27.2321 63.6487 25.2045 65.6763 22.7034 65.6763C20.2022 65.6763 18.1747 63.6487 18.1747 61.1476C18.1747 58.6464 20.2022 56.6189 22.7034 56.6189ZM11.3816 61.1476C11.3816 63.6487 9.354 65.6763 6.85288 65.6763C4.35175 65.6763 2.32416 63.6487 2.32416 61.1476C2.32416 58.6465 4.35175 56.6189 6.85288 56.6189C9.354 56.6189 11.3816 58.6464 11.3816 61.1476ZM12.5138 44.165C10.518 44.1661 8.56628 43.5777 6.90382 42.4735C7.10252 40.1697 9.07053 38.425 11.3816 38.5041H13.6459C15.957 38.425 17.925 40.1697 18.1237 42.4735C16.4612 43.5777 14.5097 44.1661 12.5138 44.165ZM9.11723 31.711C9.11723 29.8351 10.6379 28.3145 12.5138 28.3145C14.3896 28.3145 15.9103 29.8351 15.9103 31.711C15.9103 33.5869 14.3896 35.1076 12.5138 35.1076C10.6379 35.1076 9.11723 33.5868 9.11723 31.711ZM22.7034 33.9754C22.7024 36.4902 21.7666 38.9151 20.0778 40.7786C19.3896 38.665 17.672 37.0477 15.5208 36.4877C18.1697 34.8269 18.9707 31.3333 17.31 28.6844C15.6492 26.0356 12.1556 25.2345 9.5067 26.8953C6.85783 28.5561 6.05681 32.0497 7.71758 34.6986C8.1713 35.4223 8.78296 36.034 9.5067 36.4877C7.35542 37.0474 5.63762 38.6649 4.94968 40.7786C1.18887 36.5974 1.52966 30.159 5.71093 26.398C9.89221 22.637 16.3306 22.978 20.0914 27.1592C21.7746 29.0305 22.7051 31.4585 22.7034 33.9754ZM34.0251 22.6536C32.0294 22.6547 30.0777 22.0663 28.4152 20.9621C28.6139 18.6583 30.5819 16.9136 32.893 16.9927H35.1573C37.4684 16.9136 39.4364 18.6583 39.6351 20.9621C37.9726 22.0663 36.021 22.6547 34.0251 22.6536ZM30.6286 10.1997C30.6286 8.32378 32.1493 6.80313 34.0251 6.80313C35.901 6.80313 37.4217 8.32378 37.4217 10.1997C37.4217 12.0755 35.901 13.5962 34.0251 13.5962C32.1493 13.5962 30.6286 12.0754 30.6286 10.1997ZM41.5892 19.2673C40.901 17.1536 39.1833 15.5363 37.0322 14.9763C39.6811 13.3155 40.4821 9.82193 38.8213 7.17307C37.1606 4.5242 33.6669 3.72318 31.0181 5.38394C28.3692 7.0447 27.5682 10.5383 29.229 13.1872C29.6827 13.9109 30.2943 14.5226 31.0181 14.9763C28.8668 15.536 27.149 17.1535 26.4611 19.2673C22.6905 15.0897 23.0202 8.64645 27.1978 4.87588C31.3753 1.1053 37.8186 1.43505 41.5892 5.61264C45.0899 9.49091 45.0899 15.3887 41.5892 19.2673ZM49.8756 61.1476C49.8756 63.6487 47.848 65.6763 45.3469 65.6763C42.8458 65.6763 40.8182 63.6487 40.8182 61.1476C40.8182 58.6465 42.8458 56.6189 45.3469 56.6189C47.8482 56.6189 49.8756 58.6464 49.8756 61.1476ZM47.9724 40.7786C44.2019 36.601 44.5316 30.1578 48.7092 26.3872C52.8868 22.6167 59.33 22.9464 63.1006 27.124C66.6013 31.0024 66.6013 36.9002 63.1006 40.7786C62.4124 38.665 60.6947 37.0477 58.5436 36.4877C61.1925 34.8269 61.9935 31.3333 60.3327 28.6844C58.6719 26.0356 55.1783 25.2345 52.5295 26.8953C49.8806 28.5561 49.0796 32.0497 50.7403 34.6986C51.1941 35.4223 51.8057 36.034 52.5295 36.4877C50.3782 37.0473 48.6604 38.6647 47.9724 40.7786ZM55.5365 35.1076C53.6606 35.1076 52.14 33.5869 52.14 31.711C52.14 29.8351 53.6606 28.3145 55.5365 28.3145C57.4124 28.3145 58.9331 29.8351 58.9331 31.711C58.9331 33.5869 57.4124 35.1076 55.5365 35.1076ZM55.5365 44.165C53.5408 44.1661 51.589 43.5777 49.9266 42.4735C50.1253 40.1697 52.0933 38.425 54.4043 38.5041H56.6687C58.9798 38.425 60.9478 40.1697 61.1465 42.4735C59.484 43.5777 57.5324 44.1661 55.5365 44.165ZM61.1974 65.6763C58.6963 65.6763 56.6687 63.6487 56.6687 61.1476C56.6687 58.6465 58.6963 56.6189 61.1974 56.6189C63.6985 56.6189 65.7261 58.6465 65.7261 61.1476C65.7261 63.6487 63.6987 65.6763 61.1974 65.6763Z" fill="#2575E6"/>
<path d="M34.0267 27.1823C33.4015 27.1823 32.8945 27.6892 32.8945 28.3145V32.8432C32.8945 33.4684 33.4015 33.9754 34.0267 33.9754C34.652 33.9754 35.1589 33.4684 35.1589 32.8432V28.3145C35.1589 27.6891 34.6521 27.1823 34.0267 27.1823Z" fill="#2575E6"/>
<path d="M34.0267 36.2397C33.4015 36.2397 32.8945 36.7466 32.8945 37.3719V41.9006C32.8945 42.5258 33.4015 43.0328 34.0267 43.0328C34.652 43.0328 35.1589 42.5258 35.1589 41.9006V37.3719C35.1589 36.7465 34.6521 36.2397 34.0267 36.2397Z" fill="#2575E6"/>
<path d="M38.2201 53.5541L35.1553 50.4893V46.4293C35.1553 45.8041 34.6483 45.2971 34.0231 45.2971C33.3978 45.2971 32.8909 45.8041 32.8909 46.4293V50.4893L29.8261 53.5541C29.3763 53.9884 29.3639 54.7052 29.7984 55.155C30.2327 55.6047 30.9495 55.6172 31.3993 55.1827C31.4087 55.1737 31.4179 55.1643 31.427 55.155L34.0231 52.5589L36.6192 55.155C37.0689 55.5894 37.7856 55.577 38.2201 55.1272C38.6439 54.6884 38.6439 53.9928 38.2201 53.5541Z" fill="#2575E6"/>
<path d="M6.8542 63.412C8.10477 63.412 9.11856 62.3982 9.11856 61.1476C9.11856 59.897 8.10477 58.8832 6.8542 58.8832C5.60363 58.8832 4.58984 59.897 4.58984 61.1476C4.58984 62.3982 5.60363 63.412 6.8542 63.412Z" fill="#2575E6"/>
<path d="M22.7019 63.412C23.9524 63.412 24.9662 62.3982 24.9662 61.1476C24.9662 59.897 23.9524 58.8832 22.7019 58.8832C21.4513 58.8832 20.4375 59.897 20.4375 61.1476C20.4375 62.3982 21.4513 63.412 22.7019 63.412Z" fill="#2575E6"/>
<path d="M45.3464 63.412C46.597 63.412 47.6107 62.3982 47.6107 61.1476C47.6107 59.8971 46.597 58.8833 45.3464 58.8833C44.0958 58.8833 43.082 59.8971 43.082 61.1476C43.082 62.3982 44.0958 63.412 45.3464 63.412Z" fill="#2575E6"/>
<path d="M61.1979 63.412C62.4485 63.412 63.4623 62.3982 63.4623 61.1476C63.4623 59.8971 62.4485 58.8833 61.1979 58.8833C59.9474 58.8833 58.9336 59.8971 58.9336 61.1476C58.9336 62.3982 59.9474 63.412 61.1979 63.412Z" fill="#2575E6"/>
</g>
<defs>
<clipPath id="clip0">
<rect width="68" height="68" fill="white"/>
</clipPath>
</defs>
</svg>
