<svg width="72" height="72" viewBox="0 0 72 72" fill="none" xmlns="http://www.w3.org/2000/svg">
<path d="M26.2118 43.7409L28.2604 45.7895C28.9698 46.4986 30.1173 46.4986 30.8266 45.7895L32.1087 44.5073C32.3144 44.6015 32.5252 44.6888 32.7381 44.768V46.5812C32.7381 47.5818 33.5521 48.3958 34.5527 48.3958H37.4497C38.4503 48.3958 39.2643 47.5818 39.2643 46.5812V44.768C39.4772 44.6888 39.688 44.6015 39.8937 44.5073L41.1759 45.7896C41.8831 46.4965 43.0345 46.4969 43.742 45.7895L45.7906 43.7409C46.498 43.0335 46.498 41.8823 45.7905 41.1745L44.5084 39.8926C44.6026 39.6869 44.6899 39.4761 44.7691 39.2632H46.5823C47.5829 39.2632 48.3969 38.4492 48.3969 37.4486V34.5516C48.3969 33.551 47.5829 32.737 46.5823 32.737H44.7691C44.69 32.5242 44.6026 32.3134 44.5084 32.1076L45.7907 30.8254C46.498 30.1179 46.498 28.9667 45.7906 28.2593L43.7418 26.2107C43.0345 25.5032 41.8833 25.5035 41.1756 26.2107L39.8937 27.4929C39.688 27.3987 39.4772 27.3114 39.2643 27.2321V25.419C39.2643 24.4184 38.4503 23.6044 37.4497 23.6044H34.5527C33.5521 23.6044 32.7381 24.4184 32.7381 25.419V27.2321C32.5249 27.3116 32.314 27.3988 32.1087 27.4929L30.8266 26.2108C30.1177 25.5016 28.9695 25.5015 28.2604 26.2108L26.2118 28.2593C25.5044 28.9667 25.5044 30.1179 26.2119 30.8256L27.494 32.1076C27.3998 32.3133 27.3125 32.5241 27.2332 32.737H25.4201C24.4195 32.737 23.6055 33.551 23.6055 34.5516V37.4486C23.6055 38.4492 24.4195 39.2632 25.4201 39.2632H27.2332C27.3125 39.4763 27.3999 39.687 27.494 39.8926L26.2116 41.1748C25.5044 41.8823 25.5044 43.0335 26.2118 43.7409V43.7409ZM27.3584 37.2709H25.5977V34.7289H27.3584C28.1236 34.7289 28.8096 34.2461 29.0654 33.528C29.1481 33.2956 29.2434 33.0657 29.3487 32.844C29.6759 32.1547 29.5322 31.3281 28.9913 30.7871L27.7463 29.5422L29.5436 27.7448L30.7886 28.9899C31.3296 29.5307 32.1562 29.6747 32.846 29.3469C33.0668 29.2421 33.2968 29.1468 33.5294 29.0639C34.2477 28.8081 34.7305 28.1221 34.7305 27.357V25.5963H37.2725V27.357C37.2725 28.1221 37.7553 28.8081 38.4734 29.0639C38.7059 29.1466 38.9358 29.2419 39.1574 29.3472C39.8467 29.6746 40.6731 29.5306 41.2143 28.9898L42.4593 27.7448L44.2566 29.5422L43.0115 30.7871C42.4706 31.3282 42.327 32.1548 42.6542 32.844C42.7596 33.0657 42.8548 33.2957 42.9375 33.5277C43.1933 34.2461 43.8793 34.7289 44.6446 34.7289H46.4053V37.2709H44.6444C43.8793 37.2709 43.1933 37.7537 42.9377 38.4718C42.8548 38.7042 42.7596 38.9341 42.6542 39.1558C42.3271 39.8448 42.4707 40.6714 43.0116 41.2126L44.2566 42.4576L42.4593 44.255L41.214 43.0097C40.6732 42.4691 39.8468 42.3255 39.157 42.6527C38.9358 42.7579 38.7059 42.8531 38.4737 42.9358C37.7552 43.1916 37.2724 43.8775 37.2724 44.6428V46.4036H34.7304V44.6428C34.7304 43.8777 34.2476 43.1917 33.5295 42.936C33.2971 42.8531 33.0672 42.7579 32.8455 42.6526C32.1561 42.3252 31.3296 42.4692 30.7886 43.0099L29.5436 44.255L27.7463 42.4576L28.9915 41.2124C29.5322 40.6714 29.6758 39.8448 29.3485 39.1554C29.2434 38.9341 29.1481 38.7042 29.0654 38.4719C28.8096 37.7537 28.1236 37.2709 27.3584 37.2709V37.2709Z" fill="#2575E6" stroke="#2575E6" stroke-width="0.5"/>
<path d="M36.0001 41.3164C38.9315 41.3164 41.3164 38.9315 41.3164 35.9999C41.3164 33.0684 38.9315 30.6835 36.0001 30.6835C33.0686 30.6835 30.6836 33.0684 30.6836 35.9999C30.6836 38.9315 33.0686 41.3164 36.0001 41.3164ZM36.0001 32.6757C37.833 32.6757 39.3242 34.1671 39.3242 35.9999C39.3242 37.833 37.8329 39.3242 36.0001 39.3242C34.167 39.3242 32.6758 37.8328 32.6758 35.9999C32.6758 34.1669 34.167 32.6757 36.0001 32.6757Z" fill="#2575E6" stroke="#2575E6" stroke-width="0.5"/>
<path d="M14.5133 27.0268C21.4315 27.0268 27.0268 21.4047 27.0268 14.5135C27.0268 7.61345 21.4132 2 14.5133 2C7.61345 2 2 7.61345 2 14.5133C2 21.4078 7.60947 27.0268 14.5133 27.0268V27.0268ZM21.1809 22.6456C19.2954 24.1943 16.948 25.0346 14.5133 25.0346C12.1312 25.0346 9.77059 24.2266 7.84587 22.6457C7.84587 20.5833 9.4719 19.1509 11.2801 19.1509H17.7465C19.5566 19.1507 21.1809 20.5847 21.1809 22.6456ZM14.5133 3.99219C20.3148 3.99219 25.0346 8.71195 25.0346 14.5133C25.0346 16.8986 24.2355 19.1 22.8927 20.8667C22.1721 18.7145 20.1383 17.1586 17.7465 17.1586H11.2801C8.88859 17.1586 6.8547 18.7145 6.13405 20.8667C4.79132 19.1 3.99219 16.8986 3.99219 14.5133C3.99219 8.71195 8.71195 3.99219 14.5133 3.99219Z" fill="#2575E6" stroke="#2575E6" stroke-width="0.5"/>
<path d="M57.4861 44.9731C50.5862 44.9731 44.9727 50.5867 44.9727 57.4866C44.9727 64.3836 50.5761 69.9999 57.4861 69.9999C64.3613 69.9999 69.9994 64.4114 69.9994 57.4866C69.9994 50.5867 64.386 44.9731 57.4861 44.9731ZM64.1536 65.6188C60.2901 68.7922 54.7126 68.8173 50.8185 65.6188C50.8185 63.5564 52.4446 62.1241 54.2528 62.1241H60.7192C62.5295 62.124 64.1536 63.5578 64.1536 65.6188V65.6188ZM65.8654 63.8399C65.1447 61.6877 63.111 60.1318 60.7193 60.1318H54.2529C51.8614 60.1318 49.8276 61.6877 49.107 63.8399C47.7641 62.0732 46.965 59.8719 46.965 57.4866C46.965 51.685 51.6847 46.9653 57.4863 46.9653C63.2876 46.9653 68.0074 51.685 68.0074 57.4866C68.0073 59.8719 67.2081 62.0732 65.8654 63.8399V63.8399Z" fill="#2575E6" stroke="#2575E6" stroke-width="0.5"/>
<path d="M17.955 14.0832C19.8584 12.18 19.8585 9.0995 17.955 7.1963H17.9552C16.0521 5.29323 12.9715 5.2927 11.0683 7.1963C9.16484 9.09937 9.16471 12.1797 11.068 14.0832C12.9711 15.9862 16.0517 15.9866 17.955 14.0832V14.0832ZM12.4768 8.60478C13.5988 7.48278 15.4243 7.48278 16.5463 8.60478H16.5464C17.6709 9.72943 17.6711 11.5496 16.5463 12.6744C15.4244 13.7963 13.5989 13.7963 12.4767 12.6744C11.3521 11.5498 11.352 9.72957 12.4768 8.60478V8.60478Z" fill="#2575E6" stroke="#2575E6" stroke-width="0.5"/>
<path d="M11.0726 57.0564C12.9709 58.9547 16.0606 58.955 17.9594 57.0564C19.8581 55.1576 19.8581 52.068 17.9594 50.1693H17.9593C16.0607 48.2707 12.9711 48.2707 11.0724 50.1693C9.17375 52.068 9.17375 55.1576 11.0726 57.0564ZM12.481 51.578C13.6033 50.456 15.4287 50.456 16.5507 51.578C17.6727 52.6999 17.6727 54.5257 16.5508 55.6477C15.429 56.7698 13.6032 56.7698 12.4812 55.6477C11.3592 54.5257 11.3592 52.6999 12.481 51.578Z" fill="#2575E6" stroke="#2575E6" stroke-width="0.5"/>
<path d="M54.0411 7.19615C52.1425 9.09484 52.1425 12.1843 54.0411 14.083C55.9418 15.9837 59.0315 15.9798 60.9281 14.083C62.8314 12.1798 62.8316 9.09935 60.9281 7.19615H60.9282C59.0294 5.2972 55.9398 5.29746 54.0411 7.19615V7.19615ZM59.5195 12.6744C58.3976 13.7964 56.5721 13.7965 55.4498 12.6744C54.3278 11.5524 54.3278 9.72676 55.4498 8.60476C56.5717 7.48276 58.3976 7.48276 59.5195 8.60476H59.5196C60.6441 9.72955 60.6443 11.5497 59.5195 12.6744Z" fill="#2575E6" stroke="#2575E6" stroke-width="0.5"/>
<path d="M60.9281 50.1693C59.0295 48.2707 55.9398 48.2706 54.0411 50.1694C52.1425 52.0681 52.1425 55.1577 54.0412 57.0564C55.9399 58.9551 59.0294 58.9549 60.9282 57.0564C62.8269 55.1576 62.8269 52.0679 60.9281 50.1693ZM59.5196 55.6476C58.3977 56.7696 56.5721 56.7698 55.4498 55.6478C54.328 54.5258 54.328 52.7 55.4497 51.578C56.5718 50.4561 58.3973 50.456 59.5195 51.578C60.6415 52.6999 60.6415 54.5256 59.5196 55.6476V55.6476Z" fill="#2575E6" stroke="#2575E6" stroke-width="0.5"/>
<path d="M42.2656 15.5094C42.8158 15.5094 43.2617 15.0634 43.2617 14.5133C43.2617 13.9632 42.8158 13.5172 42.2656 13.5172H29.7305C29.1802 13.5172 28.7344 13.9632 28.7344 14.5133C28.7344 15.0634 29.1802 15.5094 29.7305 15.5094H42.2656Z" fill="#2575E6" stroke="#2575E6" stroke-width="0.5"/>
<path d="M29.7305 56.4905C29.1802 56.4905 28.7344 56.9363 28.7344 57.4866C28.7344 58.0368 29.1802 58.4827 29.7305 58.4827H42.2656C42.8158 58.4827 43.2617 58.0368 43.2617 57.4866C43.2617 56.9363 42.8158 56.4905 42.2656 56.4905H29.7305Z" fill="#2575E6" stroke="#2575E6" stroke-width="0.5"/>
<path d="M15.5078 42.2674V29.7323C15.5078 29.1821 15.062 28.7362 14.5117 28.7362C13.9615 28.7362 13.5156 29.1821 13.5156 29.7323V42.2674C13.5156 42.8177 13.9615 43.2635 14.5117 43.2635C15.062 43.2635 15.5078 42.8177 15.5078 42.2674Z" fill="#2575E6" stroke="#2575E6" stroke-width="0.5"/>
<path d="M58.4805 42.2674V29.7323C58.4805 29.1821 58.0346 28.7362 57.4844 28.7362C56.9341 28.7362 56.4883 29.1821 56.4883 29.7323V42.2674C56.4883 42.8177 56.9341 43.2635 57.4844 43.2635C58.0346 43.2635 58.4805 42.8177 58.4805 42.2674Z" fill="#2575E6" stroke="#2575E6" stroke-width="0.5"/>
<path d="M67.811 12.4832C67.9164 13.023 68.4404 13.3755 68.9796 13.2697C69.5195 13.1642 69.8717 12.6409 69.7661 12.1011C68.6224 6.24814 63.4579 2 57.4861 2C50.5862 2 44.9727 7.61345 44.9727 14.5133C44.9727 21.4465 50.6091 27.0267 57.4861 27.0267C63.3953 27.0267 68.4919 22.8751 69.7201 17.1494C69.8356 16.6115 69.493 16.0818 68.9551 15.9666C68.4179 15.8515 67.8877 16.1937 67.7723 16.7316C67.4429 18.2669 66.7769 19.667 65.8641 20.863C65.1424 18.7126 63.1095 17.1586 60.7193 17.1586H54.2529C51.8614 17.1586 49.8275 18.7145 49.1068 20.8667C47.764 19.1 46.965 16.8986 46.965 14.5133C46.9648 8.71195 51.6847 3.99219 57.4861 3.99219C62.5074 3.99219 66.8495 7.56312 67.811 12.4832ZM54.2529 19.1507H60.7193C62.6131 19.1507 64.1536 20.6914 64.1536 22.5851V22.6339C62.3172 24.1398 59.9791 25.0346 57.4861 25.0346C55.1383 25.0346 52.7672 24.2462 50.8185 22.6456C50.8185 20.5831 52.4446 19.1507 54.2529 19.1507V19.1507Z" fill="#2575E6" stroke="#2575E6" stroke-width="0.5"/>
<path d="M14.5133 69.9999C21.4189 69.9999 27.0268 64.384 27.0268 57.4865C27.0268 51.5696 22.8257 46.4142 17.0376 45.2279C16.4994 45.1184 15.9721 45.4649 15.8616 46.0038C15.7511 46.5428 16.0986 47.0691 16.6375 47.1798C21.5031 48.1768 25.0346 52.5115 25.0346 57.4865C25.0346 59.8717 24.2355 62.0731 22.8926 63.8399C22.172 61.6877 20.1382 60.1318 17.7465 60.1318H11.2801C8.88859 60.1318 6.8547 61.6877 6.13405 63.8399C4.79132 62.0732 3.99219 59.8719 3.99219 57.4865C3.99219 52.5114 7.52354 48.1766 12.3891 47.1798C12.9281 47.0693 13.2754 46.5428 13.165 46.0038C13.0546 45.4649 12.5283 45.1181 11.9891 45.2279C6.20099 46.4142 2 51.5696 2 57.4865C2 64.3739 7.5926 69.9999 14.5133 69.9999V69.9999ZM11.2801 62.124H17.7465C19.5567 62.124 21.1809 63.5578 21.1809 65.6186C17.324 68.7865 11.7451 68.8214 7.84587 65.6186C7.84587 63.5562 9.4719 62.124 11.2801 62.124Z" fill="#2575E6" stroke="#2575E6" stroke-width="0.5"/>
</svg>
