<svg width="15" height="17" viewBox="0 0 15 17" fill="none" xmlns="http://www.w3.org/2000/svg">
<path d="M7.5 1C4.59223 1 2.22656 3.36566 2.22656 6.27344C2.22656 7.25588 2.4987 8.21465 3.01374 9.04645L7.19982 15.7923C7.28001 15.9215 7.42128 16 7.57321 16C7.57438 16 7.57553 16 7.5767 16C7.72995 15.9988 7.87151 15.9179 7.95023 15.7864L12.0296 8.9752C12.5162 8.16098 12.7734 7.22673 12.7734 6.27344C12.7734 3.36566 10.4078 1 7.5 1ZM11.2754 8.52396L7.56656 14.7164L3.76075 8.58338C3.33205 7.89104 3.09961 7.09229 3.09961 6.27344C3.09961 3.85029 5.07686 1.87305 7.5 1.87305C9.92314 1.87305 11.8975 3.85029 11.8975 6.27344C11.8975 7.068 11.6803 7.84633 11.2754 8.52396Z" fill="#2575E6" stroke="#2575E6" stroke-width="0.5"/>
<path d="M7.5 3.63672C6.04611 3.63672 4.86328 4.81955 4.86328 6.27344C4.86328 7.71804 6.02687 8.91016 7.5 8.91016C8.9913 8.91016 10.1367 7.70216 10.1367 6.27344C10.1367 4.81955 8.95389 3.63672 7.5 3.63672ZM7.5 8.03711C6.52567 8.03711 5.73633 7.24513 5.73633 6.27344C5.73633 5.30418 6.53074 4.50977 7.5 4.50977C8.46926 4.50977 9.26074 5.30418 9.26074 6.27344C9.26074 7.23095 8.48977 8.03711 7.5 8.03711Z" fill="#2575E6" stroke="#2575E6" stroke-width="0.5"/>
</svg>
