<svg width="68" height="68" viewBox="0 0 68 68" fill="none" xmlns="http://www.w3.org/2000/svg">
<g clip-path="url(#clip0)">
<path d="M53.6939 36.4751H19.0709C18.5208 36.4751 18.075 36.9211 18.075 37.4711C18.075 38.021 18.5209 38.467 19.0709 38.467H53.6941C54.2442 38.467 54.69 38.021 54.69 37.4711C54.69 36.9211 54.244 36.4751 53.6939 36.4751Z" fill="#2575E6" stroke="#2575E6" stroke-width="0.5"/>
<path d="M53.6939 42.8936H19.0709C18.5208 42.8936 18.075 43.3395 18.075 43.8895C18.075 44.4395 18.5209 44.8855 19.0709 44.8855H53.6941C54.2442 44.8855 54.69 44.4395 54.69 43.8895C54.69 43.3395 54.244 42.8936 53.6939 42.8936Z" fill="#2575E6" stroke="#2575E6" stroke-width="0.5"/>
<path d="M53.6939 49.3115H19.0709C18.5208 49.3115 18.075 49.7575 18.075 50.3075C18.075 50.8575 18.5209 51.3034 19.0709 51.3034H53.6941C54.2442 51.3034 54.69 50.8575 54.69 50.3075C54.69 49.7575 54.244 49.3115 53.6939 49.3115Z" fill="#2575E6" stroke="#2575E6" stroke-width="0.5"/>
<path d="M53.6939 55.7295H19.0709C18.5208 55.7295 18.075 56.1755 18.075 56.7255C18.075 57.2754 18.5209 57.7214 19.0709 57.7214H53.6941C54.2442 57.7214 54.69 57.2754 54.69 56.7255C54.69 56.1755 54.244 55.7295 53.6939 55.7295Z" fill="#2575E6" stroke="#2575E6" stroke-width="0.5"/>
<path d="M53.6944 23.3354H40.9719C40.4218 23.3354 39.976 23.7814 39.976 24.3314C39.976 24.8814 40.4219 25.3274 40.9719 25.3274H53.6944C54.2445 25.3274 54.6904 24.8814 54.6904 24.3314C54.6904 23.7814 54.2445 23.3354 53.6944 23.3354Z" fill="#2575E6" stroke="#2575E6" stroke-width="0.5"/>
<path d="M53.6944 18.0703H40.9719C40.4218 18.0703 39.976 18.5163 39.976 19.0663C39.976 19.6163 40.4219 20.0622 40.9719 20.0622H53.6944C54.2445 20.0622 54.6904 19.6163 54.6904 19.0663C54.6904 18.5163 54.2445 18.0703 53.6944 18.0703Z" fill="#2575E6" stroke="#2575E6" stroke-width="0.5"/>
<path d="M60.5926 55.3934C61.1427 55.3934 61.5885 54.9475 61.5885 54.3975V9.72825C61.5885 7.56845 59.8314 5.81134 57.6716 5.81134H55.7772V3.91691C55.7773 1.75711 54.0202 0 51.8604 0H10.3277C8.16788 0 6.41077 1.75711 6.41077 3.91691V58.2718C6.41077 60.4315 8.16788 62.1887 10.3277 62.1887H12.222V64.083C12.222 66.2428 13.9791 67.9999 16.1389 67.9999H57.6715C59.8313 67.9999 61.5884 66.2428 61.5884 64.083V59.0538C61.5884 58.5036 61.1424 58.0578 60.5924 58.0578C60.0424 58.0578 59.5965 58.5038 59.5965 59.0538V64.0831C59.5965 65.1445 58.7329 66.0079 57.6716 66.0079H16.139C15.0776 66.0079 14.2142 65.1445 14.2142 64.0831V9.72825C14.2142 8.66681 15.0777 7.8034 16.139 7.8034H57.6716C58.733 7.8034 59.5965 8.66695 59.5965 9.72825V54.3975C59.5965 54.9475 60.0424 55.3934 60.5926 55.3934ZM12.222 9.72825V60.1967H10.3277C9.26624 60.1967 8.40282 59.3332 8.40282 58.2719V3.91691C8.40282 2.85547 9.26637 1.99205 10.3277 1.99205H51.8604C52.9218 1.99205 53.7853 2.8556 53.7853 3.91691V5.81121H16.139C13.9792 5.81134 12.222 7.56845 12.222 9.72825Z" fill="#2575E6" stroke="#2575E6" stroke-width="0.5"/>
<path d="M18.9916 19.676C18.4415 19.676 17.9956 20.122 17.9956 20.672V28.1941C17.9956 29.7561 19.1634 31.0577 20.7138 31.2257C21.0895 31.2667 31.8246 31.2271 31.8405 31.227C31.8441 31.2266 31.8478 31.2262 31.8514 31.2258C33.4025 31.0585 34.571 29.7566 34.571 28.1941V15.2033C34.571 13.5218 33.203 12.1538 31.5215 12.1538H21.045C19.3635 12.1538 17.9955 13.5218 17.9955 15.2033V15.9831C17.9955 16.5332 18.4415 16.979 18.9914 16.979C19.5414 16.979 19.9874 16.533 19.9874 15.9831V15.2033C19.9874 14.6203 20.4618 14.1459 21.0449 14.1459H31.5214C32.1044 14.1459 32.5788 14.6201 32.5788 15.2033V25.4005C31.8178 24.5945 30.9053 23.9384 29.8854 23.4736C30.3129 22.8001 30.55 22.011 30.55 21.1881C30.55 18.8355 28.6359 16.9214 26.2831 16.9214C23.9305 16.9214 22.0164 18.8355 22.0164 21.1881C22.0164 22.0112 22.2535 22.8001 22.681 23.4736C21.661 23.9384 20.7484 24.5945 19.9874 25.4007V20.672C19.9875 20.1219 19.5417 19.676 18.9916 19.676ZM26.2832 18.9133C27.5377 18.9133 28.5581 19.9337 28.5581 21.1881C28.5581 21.9479 28.1806 22.6548 27.5486 23.079C27.1742 23.3301 26.7367 23.4629 26.2832 23.4629C25.8298 23.4629 25.3923 23.3302 25.0181 23.079C24.3859 22.6548 24.0086 21.9479 24.0086 21.1881C24.0086 19.9337 25.029 18.9133 26.2832 18.9133ZM24.3257 24.9769C24.9284 25.289 25.5958 25.4548 26.2832 25.4548C26.9706 25.4548 27.6379 25.289 28.2408 24.9769C30.1263 25.5533 31.6522 26.9301 32.4222 28.7499C32.2561 29.0201 31.9712 29.21 31.6347 29.2454C31.5704 29.2494 21.1061 29.2601 20.9547 29.2476L20.9329 29.2456C20.9324 29.2456 20.9318 29.2454 20.9313 29.2454C20.5949 29.2099 20.3103 29.0199 20.1441 28.7499C20.9143 26.9301 22.4402 25.5533 24.3257 24.9769Z" fill="#2575E6" stroke="#2575E6" stroke-width="0.5"/>
</g>
<defs>
<clipPath id="clip0">
<rect width="68" height="68" fill="white"/>
</clipPath>
</defs>
</svg>
