<svg width="68" height="68" viewBox="0 0 68 68" fill="none" xmlns="http://www.w3.org/2000/svg">
<g clip-path="url(#clip0)">
<path d="M66.9185 66.459V41.0926C66.9244 38.5469 64.8654 36.4786 62.3197 36.4727C62.3143 36.4727 62.3089 36.4727 62.3035 36.4727H48.373V34.8809C49.0252 35.4025 49.9715 35.3225 50.5268 34.6987L54.4522 30.2238C55.014 29.5925 54.9576 28.6255 54.3263 28.0638C54.3142 28.053 54.3019 28.0424 54.2895 28.0321L35.5458 11.994V9.58183H43.7603C44.6153 9.58029 45.3072 8.88592 45.3056 8.03097C45.305 7.69329 45.194 7.36519 44.9896 7.09643L43.2307 4.78706L44.9896 2.478C45.5062 1.80063 45.3759 0.832707 44.6986 0.316062C44.429 0.110516 44.0992 -0.000601982 43.7603 1.61998e-05H34.024C33.1667 -0.00384744 32.4665 0.68388 32.4549 1.54099V11.7146L13.4057 28.0322C12.7607 28.5914 12.6899 29.5672 13.2476 30.2135L17.0949 34.6884C17.3737 35.0288 17.7904 35.2263 18.2303 35.2265C18.5727 35.2265 19.0094 35.1123 19.164 34.8812V36.4727H5.69717C3.1515 36.4696 1.08522 38.5307 1.08213 41.0763C1.08213 41.0817 1.08213 41.0872 1.08213 41.0926V66.459C1.07255 67.3005 1.74699 67.9904 2.58833 67.9999C2.59436 67.9999 2.60023 68 2.60626 68H65.3944C66.2359 68.0003 66.9183 67.3185 66.9187 66.477C66.9187 66.4709 66.9185 66.4651 66.9185 66.459ZM35.5458 3.09093H40.6401L40.0585 3.85206C39.6371 4.4058 39.6371 5.17265 40.0585 5.72639L40.6401 6.49092H35.5458V3.09093ZM19.164 64.9091H4.17304V41.0926C4.16516 40.2562 4.83666 39.5717 5.67306 39.5636C5.6811 39.5636 5.68913 39.5635 5.69717 39.5636H19.164V64.9091ZM18.4379 31.5063L16.6041 29.3732L33.8612 14.5996L51.1065 29.3637L49.2263 31.5118L34.8658 19.2221C34.2882 18.7278 33.4372 18.7269 32.8585 19.2199L18.4379 31.5063ZM37.5549 64.9091H30.1367V53.9364H37.5549V64.9091ZM45.2821 64.9091H40.6458V52.343C40.6757 51.5463 40.0543 50.8762 39.2578 50.8462C39.23 50.8452 39.2022 50.845 39.1743 50.8455H28.5466C27.736 50.8272 27.064 51.4697 27.0458 52.2804C27.0453 52.3013 27.0453 52.3221 27.0458 52.343V64.9091H22.2549V32.2499L33.8011 22.4284L45.2821 32.2382V64.9091ZM63.8276 41.0926V64.9091H48.373V39.5636H62.3035C63.1399 39.5584 63.8223 40.2321 63.8276 41.0685C63.8277 41.0765 63.8277 41.0845 63.8276 41.0926Z" fill="#2575E6"/>
<path d="M39.1767 41.4182H28.479C27.6255 41.4182 26.9336 42.1101 26.9336 42.9637C26.9336 43.8172 27.6255 44.5091 28.479 44.5091H39.1767C40.0302 44.5091 40.7221 43.8172 40.7221 42.9637C40.7221 42.1101 40.0302 41.4182 39.1767 41.4182Z" fill="#2575E6"/>
<path d="M8.49858 43.8678C7.64502 43.8678 6.95312 44.5597 6.95312 45.4133V48.0702C6.95312 48.9238 7.64502 49.6157 8.49858 49.6157C9.35213 49.6157 10.044 48.9238 10.044 48.0702V45.4133C10.044 44.5597 9.35213 43.8678 8.49858 43.8678Z" fill="#2575E6"/>
<path d="M14.8345 43.8678C13.981 43.8678 13.2891 44.5597 13.2891 45.4133V48.0702C13.2891 48.9238 13.981 49.6157 14.8345 49.6157C15.6881 49.6157 16.38 48.9238 16.38 48.0702V45.4133C16.38 44.5597 15.6881 43.8678 14.8345 43.8678Z" fill="#2575E6"/>
<path d="M8.49858 54.2158C7.64502 54.2158 6.95312 54.9077 6.95312 55.7613V58.4182C6.95312 59.2718 7.64502 59.9637 8.49858 59.9637C9.35213 59.9637 10.044 59.2718 10.044 58.4182V55.7613C10.044 54.9077 9.35213 54.2158 8.49858 54.2158Z" fill="#2575E6"/>
<path d="M14.8345 54.2158C13.981 54.2158 13.2891 54.9077 13.2891 55.7613V58.4182C13.2891 59.2718 13.981 59.9637 14.8345 59.9637C15.6881 59.9637 16.38 59.2718 16.38 58.4182V55.7613C16.38 54.9077 15.6881 54.2158 14.8345 54.2158Z" fill="#2575E6"/>
<path d="M53.1646 43.8677C52.311 43.8677 51.6191 44.5596 51.6191 45.4132V48.0701C51.6191 48.9237 52.311 49.6156 53.1646 49.6156C54.0182 49.6156 54.7101 48.9237 54.7101 48.0701V45.4132C54.7101 44.5596 54.0182 43.8677 53.1646 43.8677Z" fill="#2575E6"/>
<path d="M59.3462 43.8677C58.4927 43.8677 57.8008 44.5596 57.8008 45.4132V48.0701C57.8008 48.9237 58.4927 49.6156 59.3462 49.6156C60.1998 49.6156 60.8917 48.9237 60.8917 48.0701V45.4132C60.8917 44.5596 60.1998 43.8677 59.3462 43.8677Z" fill="#2575E6"/>
<path d="M53.1646 54.2158C52.311 54.2158 51.6191 54.9077 51.6191 55.7613V58.4182C51.6191 59.2718 52.311 59.9637 53.1646 59.9637C54.0182 59.9637 54.7101 59.2718 54.7101 58.4182V55.7613C54.7101 54.9077 54.0182 54.2158 53.1646 54.2158Z" fill="#2575E6"/>
<path d="M59.3462 54.2158C58.4927 54.2158 57.8008 54.9077 57.8008 55.7613V58.4182C57.8008 59.2718 58.4927 59.9637 59.3462 59.9637C60.1998 59.9637 60.8917 59.2718 60.8917 58.4182V55.7613C60.8917 54.9077 60.1998 54.2158 59.3462 54.2158Z" fill="#2575E6"/>
</g>
<defs>
<clipPath id="clip0">
<rect width="68" height="68" fill="white"/>
</clipPath>
</defs>
</svg>
