<svg width="71" height="71" viewBox="0 0 71 71" fill="none" xmlns="http://www.w3.org/2000/svg">
<path d="M41.0469 59.9062H38.8281V49.0344C38.8281 48.7402 38.7112 48.458 38.5032 48.2499C38.2951 48.0419 38.013 47.925 37.7188 47.925C37.4245 47.925 37.1424 48.0419 36.9343 48.2499C36.7263 48.458 36.6094 48.7402 36.6094 49.0344V59.9062H7.76562V37.7188H16.9956C17.2898 37.7188 17.572 37.6019 17.7801 37.3938C17.9881 37.1858 18.105 36.9036 18.105 36.6094C18.105 36.3152 17.9881 36.033 17.7801 35.8249C17.572 35.6169 17.2898 35.5 16.9956 35.5H6.65625C6.36203 35.5 6.07985 35.6169 5.8718 35.8249C5.66376 36.033 5.54688 36.3152 5.54688 36.6094V59.9062H3.32812C3.0339 59.9062 2.75173 60.0231 2.54368 60.2312C2.33563 60.4392 2.21875 60.7214 2.21875 61.0156V63.2344C2.21875 64.7055 2.80315 66.1164 3.84339 67.1566C4.88363 68.1968 6.2945 68.7812 7.76562 68.7812H36.6094C38.0805 68.7812 39.4914 68.1968 40.5316 67.1566C41.5718 66.1164 42.1562 64.7055 42.1562 63.2344V61.0156C42.1562 60.7214 42.0394 60.4392 41.8313 60.2312C41.6233 60.0231 41.3411 59.9062 41.0469 59.9062ZM39.9375 63.2344C39.9375 64.117 39.5869 64.9636 38.9627 65.5877C38.3386 66.2119 37.492 66.5625 36.6094 66.5625H34.3906V65.4531C34.3906 65.1589 34.2737 64.8767 34.0657 64.6687C33.8576 64.4606 33.5755 64.3438 33.2812 64.3438C32.987 64.3438 32.7049 64.4606 32.4968 64.6687C32.2888 64.8767 32.1719 65.1589 32.1719 65.4531V66.5625H12.2031V65.4531C12.2031 65.1589 12.0862 64.8767 11.8782 64.6687C11.6701 64.4606 11.388 64.3438 11.0938 64.3438C10.7995 64.3438 10.5174 64.4606 10.3093 64.6687C10.1013 64.8767 9.98438 65.1589 9.98438 65.4531V66.5625H7.76562C6.88295 66.5625 6.03643 66.2119 5.41229 65.5877C4.78814 64.9636 4.4375 64.117 4.4375 63.2344V62.125H39.9375V63.2344Z" fill="#2575E6"/>
<path d="M59.9062 8.875H62.125C62.4192 8.875 62.7014 8.75812 62.9094 8.55007C63.1175 8.34202 63.2344 8.05985 63.2344 7.76562C63.2344 7.4714 63.1175 7.18923 62.9094 6.98118C62.7014 6.77313 62.4192 6.65625 62.125 6.65625H59.9062C59.0236 6.65625 58.1771 7.00689 57.5529 7.63104C56.9288 8.25518 56.5781 9.1017 56.5781 9.98438V11.0938H55.4688C55.1745 11.0938 54.8924 11.2106 54.6843 11.4187C54.4763 11.6267 54.3594 11.9089 54.3594 12.2031C54.3594 12.4973 54.4763 12.7795 54.6843 12.9876C54.8924 13.1956 55.1745 13.3125 55.4688 13.3125H56.5781V16.6406C56.5781 16.9348 56.695 17.217 56.9031 17.4251C57.1111 17.6331 57.3933 17.75 57.6875 17.75C57.9817 17.75 58.2639 17.6331 58.4719 17.4251C58.68 17.217 58.7969 16.9348 58.7969 16.6406V13.3125H59.9062C60.2005 13.3125 60.4826 13.1956 60.6907 12.9876C60.8987 12.7795 61.0156 12.4973 61.0156 12.2031C61.0156 11.9089 60.8987 11.6267 60.6907 11.4187C60.4826 11.2106 60.2005 11.0938 59.9062 11.0938H58.7969V9.98438C58.7969 9.69015 58.9138 9.40798 59.1218 9.19993C59.3299 8.99188 59.612 8.875 59.9062 8.875Z" fill="#2575E6"/>
<path d="M65.4531 2.21875H52.1406C51.258 2.21875 50.4114 2.56939 49.7873 3.19354C49.1631 3.81768 48.8125 4.6642 48.8125 5.54688V7.76562C48.8125 8.05985 48.9294 8.34202 49.1374 8.55007C49.3455 8.75812 49.6277 8.875 49.9219 8.875C50.2161 8.875 50.4983 8.75812 50.7063 8.55007C50.9144 8.34202 51.0312 8.05985 51.0312 7.76562V5.54688C51.0312 5.25265 51.1481 4.97048 51.3562 4.76243C51.5642 4.55438 51.8464 4.4375 52.1406 4.4375H65.4531C65.7473 4.4375 66.0295 4.55438 66.2376 4.76243C66.4456 4.97048 66.5625 5.25265 66.5625 5.54688V18.8594C66.5625 19.1536 66.4456 19.4358 66.2376 19.6438C66.0295 19.8519 65.7473 19.9688 65.4531 19.9688H52.1406C51.8464 19.9688 51.5642 19.8519 51.3562 19.6438C51.1481 19.4358 51.0312 19.1536 51.0312 18.8594V12.2031C51.0312 11.9089 50.9144 11.6267 50.7063 11.4187C50.4983 11.2106 50.2161 11.0938 49.9219 11.0938C49.6277 11.0938 49.3455 11.2106 49.1374 11.4187C48.9294 11.6267 48.8125 11.9089 48.8125 12.2031V18.8594C48.8125 19.742 49.1631 20.5886 49.7873 21.2127C50.4114 21.8369 51.258 22.1875 52.1406 22.1875H65.4531C66.3358 22.1875 67.1823 21.8369 67.8065 21.2127C68.4306 20.5886 68.7812 19.742 68.7812 18.8594V5.54688C68.7812 4.6642 68.4306 3.81768 67.8065 3.19354C67.1823 2.56939 66.3358 2.21875 65.4531 2.21875V2.21875Z" fill="#2575E6"/>
<path d="M54.3594 46.5938C54.3594 47.4714 54.6196 48.3294 55.1072 49.0591C55.5948 49.7888 56.2879 50.3576 57.0987 50.6935C57.9096 51.0293 58.8018 51.1172 59.6626 50.946C60.5234 50.7748 61.3141 50.3521 61.9347 49.7315C62.5553 49.1109 62.9779 48.3203 63.1491 47.4595C63.3203 46.5987 63.2325 45.7064 62.8966 44.8956C62.5607 44.0847 61.992 43.3917 61.2622 42.9041C60.5325 42.4165 59.6745 42.1562 58.7969 42.1562C57.62 42.1562 56.4913 42.6238 55.6591 43.456C54.8269 44.2882 54.3594 45.4169 54.3594 46.5938ZM61.0156 46.5938C61.0156 47.0326 60.8855 47.4616 60.6417 47.8264C60.3979 48.1913 60.0514 48.4757 59.646 48.6436C59.2405 48.8115 58.7944 48.8555 58.364 48.7699C57.9336 48.6843 57.5383 48.4729 57.228 48.1627C56.9177 47.8524 56.7064 47.457 56.6208 47.0266C56.5351 46.5962 56.5791 46.1501 56.747 45.7447C56.915 45.3393 57.1993 44.9927 57.5642 44.7489C57.9291 44.5051 58.3581 44.375 58.7969 44.375C59.3853 44.375 59.9497 44.6088 60.3658 45.0249C60.7819 45.441 61.0156 46.0053 61.0156 46.5938Z" fill="#2575E6"/>
<path d="M65.4531 36.6094H52.1406C51.258 36.6094 50.4114 36.96 49.7873 37.5842C49.1631 38.2083 48.8125 39.0548 48.8125 39.9375V53.25C48.8125 54.1327 49.1631 54.9792 49.7873 55.6033C50.4114 56.2275 51.258 56.5781 52.1406 56.5781H65.4531C66.3358 56.5781 67.1823 56.2275 67.8065 55.6033C68.4306 54.9792 68.7812 54.1327 68.7812 53.25V51.0312C68.7812 50.737 68.6644 50.4549 68.4563 50.2468C68.2483 50.0388 67.9661 49.9219 67.6719 49.9219C67.3777 49.9219 67.0955 50.0388 66.8874 50.2468C66.6794 50.4549 66.5625 50.737 66.5625 51.0312V53.25C66.5625 53.5442 66.4456 53.8264 66.2376 54.0344C66.0295 54.2425 65.7473 54.3594 65.4531 54.3594H52.1406C51.8464 54.3594 51.5642 54.2425 51.3562 54.0344C51.1481 53.8264 51.0312 53.5442 51.0312 53.25V39.9375C51.0312 39.6433 51.1481 39.3611 51.3562 39.1531C51.5642 38.945 51.8464 38.8281 52.1406 38.8281H65.4531C65.7473 38.8281 66.0295 38.945 66.2376 39.1531C66.4456 39.3611 66.5625 39.6433 66.5625 39.9375V46.5938C66.5625 46.888 66.6794 47.1701 66.8874 47.3782C67.0955 47.5862 67.3777 47.7031 67.6719 47.7031C67.9661 47.7031 68.2483 47.5862 68.4563 47.3782C68.6644 47.1701 68.7812 46.888 68.7812 46.5938V39.9375C68.7812 39.0548 68.4306 38.2083 67.8065 37.5842C67.1823 36.96 66.3358 36.6094 65.4531 36.6094V36.6094Z" fill="#2575E6"/>
<path d="M27.1464 15.3648C27.323 15.4743 27.5267 15.5319 27.7344 15.5313C27.908 15.5302 28.079 15.4884 28.2336 15.4092L34.8898 12.0811C35.0716 11.988 35.2241 11.8466 35.3306 11.6724C35.437 11.4981 35.4934 11.2979 35.4934 11.0938C35.4934 10.8896 35.437 10.6894 35.3306 10.5152C35.2241 10.3409 35.0716 10.1995 34.8898 10.1064L28.2336 6.77828C28.0647 6.69318 27.8769 6.65266 27.6879 6.66058C27.499 6.66849 27.3152 6.72458 27.154 6.8235C26.9929 6.92243 26.8597 7.06091 26.7671 7.2258C26.6745 7.39069 26.6256 7.57652 26.625 7.76562V14.4219C26.6246 14.6104 26.6723 14.7959 26.7635 14.9609C26.8548 15.1259 26.9865 15.2649 27.1464 15.3648V15.3648ZM28.8438 9.56281L31.9056 11.0938L28.8438 12.6247V9.56281Z" fill="#2575E6"/>
<path d="M29.9531 21.0781C31.9278 21.0781 33.8582 20.4926 35.5001 19.3955C37.1421 18.2984 38.4218 16.739 39.1775 14.9146C39.9332 13.0902 40.1309 11.0827 39.7457 9.1459C39.3604 7.20912 38.4095 5.43008 37.0131 4.03374C35.6168 2.6374 33.8378 1.68648 31.901 1.30123C29.9642 0.915977 27.9567 1.1137 26.1323 1.86939C24.3079 2.62509 22.7485 3.90481 21.6514 5.54673C20.5543 7.18865 19.9688 9.11903 19.9688 11.0938C19.9688 13.7418 21.0207 16.2813 22.8931 18.1538C24.7655 20.0262 27.3051 21.0781 29.9531 21.0781V21.0781ZM29.9531 3.32813C31.489 3.32813 32.9904 3.78358 34.2675 4.63687C35.5445 5.49017 36.5399 6.703 37.1276 8.12198C37.7154 9.54096 37.8692 11.1024 37.5695 12.6088C37.2699 14.1151 36.5303 15.4988 35.4443 16.5849C34.3582 17.6709 32.9745 18.4105 31.4681 18.7102C29.9617 19.0098 28.4003 18.856 26.9813 18.2683C25.5624 17.6805 24.3495 16.6852 23.4962 15.4081C22.6429 14.1311 22.1875 12.6296 22.1875 11.0938C22.1875 9.03418 23.0057 7.05897 24.462 5.60263C25.9183 4.14629 27.8936 3.32813 29.9531 3.32813V3.32813Z" fill="#2575E6"/>
<path d="M41.0469 25.5156C41.2191 25.5156 41.389 25.4755 41.543 25.3985C41.697 25.3215 41.831 25.2097 41.9344 25.0719L45.2625 20.6344C45.439 20.399 45.5148 20.1031 45.4732 19.8119C45.4316 19.5206 45.276 19.2578 45.0406 19.0813C44.8052 18.9047 44.5094 18.8289 44.2181 18.8705C43.9268 18.9121 43.664 19.0678 43.4875 19.3031L40.1594 23.7406C39.9828 23.976 39.907 24.2719 39.9487 24.5632C39.9903 24.8544 40.1459 25.1172 40.3813 25.2938C40.5733 25.4378 40.8068 25.5156 41.0469 25.5156Z" fill="#2575E6"/>
<path d="M43.4875 29.5094C43.5908 29.6472 43.7248 29.759 43.8789 29.836C44.0329 29.913 44.2028 29.9531 44.375 29.9531C44.615 29.9531 44.8486 29.8753 45.0406 29.7313L49.4781 26.4031C49.7135 26.2266 49.8691 25.9638 49.9107 25.6725C49.9523 25.3813 49.8765 25.0854 49.7 24.85C49.5235 24.6146 49.2607 24.459 48.9694 24.4174C48.6781 24.3758 48.3823 24.4516 48.1469 24.6281L43.7094 27.9563C43.474 28.1328 43.3184 28.3956 43.2768 28.6869C43.2352 28.9781 43.311 29.274 43.4875 29.5094V29.5094Z" fill="#2575E6"/>
<path d="M54.3587 31.95C54.3323 31.803 54.2765 31.6627 54.1946 31.5378C54.1127 31.4128 54.0064 31.3056 53.8821 31.2228C53.7577 31.1399 53.618 31.083 53.4711 31.0554C53.3242 31.0279 53.1733 31.0303 53.0274 31.0626L47.4805 32.1719C47.3348 32.1865 47.1935 32.2296 47.0644 32.2988C46.9354 32.368 46.8213 32.462 46.7286 32.5753C46.5413 32.8041 46.4527 33.098 46.4821 33.3922C46.5115 33.6865 46.6566 33.9569 46.8855 34.1442C47.1143 34.3314 47.4082 34.4201 47.7024 34.3907H47.9243L53.4712 33.2813C53.6182 33.2549 53.7585 33.1991 53.8835 33.1172C54.0084 33.0353 54.1156 32.929 54.1985 32.8047C54.2813 32.6804 54.3383 32.5406 54.3658 32.3937C54.3933 32.2469 54.3909 32.096 54.3587 31.95Z" fill="#2575E6"/>
<path d="M3.32812 32.1719H16.6406C16.9348 32.1719 17.217 32.055 17.4251 31.8469C17.6331 31.6389 17.75 31.3567 17.75 31.0625V13.3125C17.75 13.0183 17.6331 12.7361 17.4251 12.5281C17.217 12.32 16.9348 12.2031 16.6406 12.2031H3.32812C3.0339 12.2031 2.75173 12.32 2.54368 12.5281C2.33563 12.7361 2.21875 13.0183 2.21875 13.3125V31.0625C2.21875 31.3567 2.33563 31.6389 2.54368 31.8469C2.75173 32.055 3.0339 32.1719 3.32812 32.1719ZM4.4375 14.4219H15.5312V29.9531H4.4375V14.4219Z" fill="#2575E6"/>
<path d="M12.2031 16.6406H9.98438C9.69015 16.6406 9.40798 16.7575 9.19993 16.9656C8.99188 17.1736 8.875 17.4558 8.875 17.75C8.875 18.0442 8.99188 18.3264 9.19993 18.5344C9.40798 18.7425 9.69015 18.8594 9.98438 18.8594H12.2031C12.4973 18.8594 12.7795 18.7425 12.9876 18.5344C13.1956 18.3264 13.3125 18.0442 13.3125 17.75C13.3125 17.4558 13.1956 17.1736 12.9876 16.9656C12.7795 16.7575 12.4973 16.6406 12.2031 16.6406Z" fill="#2575E6"/>
<path d="M12.2031 21.0781H7.76562C7.4714 21.0781 7.18923 21.195 6.98118 21.4031C6.77313 21.6111 6.65625 21.8933 6.65625 22.1875C6.65625 22.4817 6.77313 22.7639 6.98118 22.9719C7.18923 23.18 7.4714 23.2969 7.76562 23.2969H12.2031C12.4973 23.2969 12.7795 23.18 12.9876 22.9719C13.1956 22.7639 13.3125 22.4817 13.3125 22.1875C13.3125 21.8933 13.1956 21.6111 12.9876 21.4031C12.7795 21.195 12.4973 21.0781 12.2031 21.0781Z" fill="#2575E6"/>
<path d="M12.2031 25.5156H7.76562C7.4714 25.5156 7.18923 25.6325 6.98118 25.8406C6.77313 26.0486 6.65625 26.3308 6.65625 26.625C6.65625 26.9192 6.77313 27.2014 6.98118 27.4094C7.18923 27.6175 7.4714 27.7344 7.76562 27.7344H12.2031C12.4973 27.7344 12.7795 27.6175 12.9876 27.4094C13.1956 27.2014 13.3125 26.9192 13.3125 26.625C13.3125 26.3308 13.1956 26.0486 12.9876 25.8406C12.7795 25.6325 12.4973 25.5156 12.2031 25.5156Z" fill="#2575E6"/>
<path d="M40.0681 31.8391C39.9953 31.7123 39.8982 31.6012 39.7824 31.5119C39.6666 31.4227 39.5343 31.3572 39.3932 31.3191C39.2521 31.2809 39.1048 31.271 38.9598 31.2898C38.8149 31.3086 38.675 31.3557 38.5483 31.4286C38.4215 31.5014 38.3104 31.5985 38.2211 31.7143C38.1319 31.8301 38.0664 31.9624 38.0283 32.1035C37.9901 32.2446 37.9802 32.3919 37.999 32.5369C38.0178 32.6818 38.065 32.8217 38.1378 32.9484L43.0301 41.413L25.2801 48.0692C25.2801 48.0692 25.2801 48.0692 25.2025 48.0692H25.1137L22.2294 49.7333L20.3101 50.8427C20.0575 50.9887 19.7785 51.0835 19.4891 51.1216C19.1998 51.1597 18.9057 51.1403 18.6239 51.0645C18.0577 50.9116 17.575 50.5406 17.2815 50.0328L15.0628 46.1944C14.8018 45.6922 14.7425 45.1092 14.8972 44.5648C15.0519 44.0203 15.4088 43.5556 15.8948 43.2656L19.7333 41.0469L22.5067 45.8505C22.6044 46.0198 22.7452 46.1602 22.9147 46.2576C23.0842 46.355 23.2764 46.4059 23.4719 46.4052C23.667 46.4059 23.8588 46.3552 24.0281 46.2582C24.1974 46.1611 24.338 46.0212 24.4359 45.8524C24.5338 45.6836 24.5855 45.492 24.5856 45.2969C24.5858 45.1018 24.5346 44.9101 24.437 44.7411L21.5748 39.7933L35.4975 28.3112L35.9523 29.0989C36.0252 29.2257 36.1223 29.3368 36.2381 29.426C36.3539 29.5153 36.4861 29.5808 36.6272 29.6189C36.7684 29.657 36.9156 29.667 37.0606 29.6482C37.2056 29.6294 37.3454 29.5822 37.4722 29.5094C37.5989 29.4365 37.7101 29.3394 37.7993 29.2236C37.8885 29.1078 37.9541 28.9756 37.9922 28.8345C38.0303 28.6933 38.0402 28.5461 38.0214 28.4011C38.0026 28.2561 37.9555 28.1163 37.8826 27.9895L36.7733 26.0703C36.692 25.9313 36.5814 25.8117 36.4492 25.7197C36.317 25.6278 36.1664 25.5657 36.0078 25.5378C35.8484 25.5078 35.6843 25.513 35.5271 25.5533C35.3699 25.5936 35.2235 25.6678 35.0981 25.7708L19.5669 38.573L14.8409 41.302C13.9928 41.796 13.3324 42.5572 12.9631 43.4666C12.5937 44.3759 12.5362 45.382 12.7997 46.3275L11.6903 46.9598C11.1187 47.2881 10.6574 47.7787 10.365 48.3694C10.0726 48.9601 9.96213 49.6244 10.0477 50.2779C10.1332 50.9315 10.4109 51.5449 10.8456 52.0405C11.2802 52.536 11.8522 52.8914 12.489 53.0614C12.7714 53.1362 13.0623 53.1735 13.3544 53.1723C13.938 53.1699 14.5111 53.0171 15.0184 52.7286L16.1278 52.0962C16.6607 52.6468 17.3309 53.0451 18.0692 53.25C18.4483 53.356 18.8404 53.4083 19.234 53.4053C20.0138 53.4071 20.7799 53.2003 21.4528 52.8062L22.418 52.2516L24.6367 56.1011C25.0776 56.8634 25.8028 57.4199 26.6533 57.6487C27.5037 57.8774 28.4102 57.7597 29.174 57.3214C29.553 57.1031 29.8852 56.8121 30.1517 56.4653C30.4181 56.1185 30.6136 55.7225 30.727 55.3001C30.8403 54.8777 30.8693 54.4371 30.8122 54.0034C30.7551 53.5698 30.6131 53.1517 30.3944 52.773L28.3753 49.2563L45.0159 43.0105C45.1668 42.9537 45.3036 42.8648 45.4166 42.7499C45.5296 42.6349 45.6163 42.4967 45.6705 42.3448C45.7244 42.1948 45.7455 42.0349 45.7321 41.876C45.7187 41.7171 45.6712 41.5629 45.5928 41.4241L40.0681 31.8391ZM13.8647 50.7983C13.7383 50.8713 13.5988 50.9187 13.4542 50.9377C13.3095 50.9568 13.1625 50.9471 13.0215 50.9092C12.7373 50.8354 12.494 50.6519 12.3448 50.3989C12.2718 50.2726 12.2244 50.1331 12.2054 49.9884C12.1863 49.8437 12.196 49.6967 12.2339 49.5558C12.2718 49.4141 12.3373 49.2814 12.4268 49.1652C12.5163 49.0491 12.628 48.9518 12.7553 48.8791L13.7205 48.3244L14.8298 50.2436L13.8647 50.7983ZM28.464 53.9045C28.5371 54.0309 28.5845 54.1704 28.6035 54.315C28.6225 54.4597 28.6129 54.6067 28.575 54.7477C28.4959 55.0297 28.3084 55.2689 28.0536 55.4133C27.8002 55.5588 27.4996 55.5985 27.2171 55.5238C26.9346 55.449 26.693 55.2658 26.5448 55.0139L24.3261 51.1644L26.1676 50.1105H26.2564L28.464 53.9045Z" fill="#2575E6"/>
</svg>
