<svg width="17" height="17" viewBox="0 0 17 17" fill="none" xmlns="http://www.w3.org/2000/svg">
<g clip-path="url(#clip0)">
<path d="M14.1065 9.22813C13.8316 8.88104 13.9102 8.72663 14.1065 8.41638C14.11 8.41283 16.3788 5.27775 16.6125 4.21454L16.614 4.21383C16.7301 3.82638 16.614 3.54163 16.0522 3.54163H14.1936C13.7204 3.54163 13.5022 3.786 13.3854 4.05942C13.3854 4.05942 12.439 6.32467 11.1003 7.79304C10.6682 8.21733 10.4685 8.35334 10.2326 8.35334C10.1164 8.35334 9.93579 8.21733 9.93579 7.82988V4.21383C9.93579 3.74917 9.80333 3.54163 9.41162 3.54163H6.48904C6.19225 3.54163 6.01587 3.75838 6.01587 3.96025C6.01587 4.40083 6.68525 4.50213 6.75467 5.74171V8.43125C6.75467 9.02059 6.64771 9.12896 6.41042 9.12896C5.77858 9.12896 4.24504 6.8545 3.33625 4.25138C3.15279 3.74633 2.97358 3.54233 2.49687 3.54233H0.6375C0.106958 3.54233 0 3.78671 0 4.06013C0 4.54321 0.631833 6.94517 2.93817 10.1185C4.47525 12.2846 6.63992 13.4583 8.60908 13.4583C9.79271 13.4583 9.93721 13.1976 9.93721 12.7493C9.93721 10.6795 9.83025 10.484 10.4231 10.484C10.698 10.484 11.1711 10.62 12.2761 11.6648C13.5391 12.9037 13.7466 13.4583 14.4535 13.4583H16.3122C16.842 13.4583 17.1105 13.1976 16.9561 12.6834C16.6026 11.6018 14.2141 9.37688 14.1065 9.22813V9.22813Z" fill="#1F1F1F"/>
</g>
<defs>
<clipPath id="clip0">
<rect width="17" height="17" fill="white"/>
</clipPath>
</defs>
</svg>
