<svg width="79" height="79" viewBox="0 0 79 79" fill="none" xmlns="http://www.w3.org/2000/svg">
<g clip-path="url(#clip0)">
<path d="M3.15766 64.3376H17.9659V68.0238C17.9659 69.9905 19.5662 71.5907 21.5329 71.5907H36.7148C37.3543 71.5907 37.872 71.0724 37.872 70.4335C37.872 69.7946 37.3543 69.2763 36.7148 69.2763H28.425V54.7001C28.425 54.0606 27.9066 53.5428 27.2678 53.5428C26.6283 53.5428 26.1105 54.0606 26.1105 54.7001V69.2763H21.5329C20.8427 69.2763 20.281 68.7146 20.281 68.0238C20.281 67.7852 20.281 49.8463 20.281 49.3479C20.281 47.6289 20.9072 46.0709 22.2441 44.8401C23.476 43.7046 23.9654 43.6937 28.5931 41.9019C29.5798 42.9861 30.6563 44.1627 31.8038 45.4109C35.8807 49.8439 42.8927 49.8433 46.9689 45.4103C48.1436 44.1331 49.24 42.9349 50.2393 41.8368L54.8188 43.6106H54.82C57.2224 44.54 58.719 46.8779 58.719 49.3479V68.0238C58.719 68.7146 58.1573 69.2763 57.4671 69.2763H52.8895V54.7001C52.8895 54.0606 52.3717 53.5428 51.7322 53.5428C51.0934 53.5428 50.575 54.0606 50.575 54.7001V69.2763H42.1158C41.4763 69.2763 40.9586 69.794 40.9586 70.4335C40.9586 71.0724 41.4763 71.5907 42.1158 71.5907H57.4671C59.4338 71.5907 61.0341 69.9905 61.0341 68.0238V64.3376H75.8423C77.5836 64.3376 79 62.9212 79 61.1799V55.3178C79 54.679 78.4823 54.1606 77.8428 54.1606C77.2033 54.1606 76.6855 54.679 76.6855 55.3178V61.1799C76.6855 61.6446 76.3076 62.0225 75.8423 62.0225H72.2399V50.1206C72.2399 49.4817 71.7221 48.9633 71.0826 48.9633C70.4432 48.9633 69.9254 49.4817 69.9254 50.1206V62.0225H61.0341V49.3479C61.0341 47.9875 60.7508 46.8381 60.3198 45.8732C63.1098 46.0184 65.8245 44.9185 67.7098 42.8686C68.6772 41.8169 69.5921 40.817 70.4395 39.8857L73.8262 41.1973C74.0408 41.2913 76.6855 42.5166 76.6855 45.6785V49.9175C76.6855 50.5563 77.2033 51.0747 77.8428 51.0747C78.4823 51.0747 79 50.5563 79 49.9175V45.6785C79 40.8772 74.878 39.1269 74.7026 39.0552C74.6954 39.0522 74.6881 39.0492 74.6803 39.0462L68.7387 36.745H69.5529C71.7384 36.745 73.6243 35.4135 74.3584 33.3534C75.0389 31.4434 74.5658 29.3966 73.1584 28.0061C73.4122 27.1972 73.3893 26.3124 73.0825 25.5138C72.7666 24.6893 72.1898 24.0191 71.4352 23.5887V21.3641C71.4352 15.4948 66.6611 10.7966 61.0455 10.7966C56.5799 10.8297 52.7641 13.7264 51.3061 17.7484C50.4581 11.993 45.4874 7.56055 39.5 7.56055C33.9091 7.56055 29.2067 11.4252 27.9169 16.6225C25.4771 11.6771 21.466 10.1058 17.8725 11.0413C14.0175 10.0371 9.61342 11.8754 7.20856 18.0286C5.11169 23.3953 6.14234 28.0061 7.13924 32.4656L7.20916 32.7784C7.53342 34.2316 8.79974 35.2466 10.2885 35.2466H13.2593V35.5841C13.2587 35.5841 8.36819 37.4785 8.36819 37.4785L4.31971 39.0462C4.31187 39.0492 4.30464 39.0522 4.29741 39.0552C4.12202 39.1269 0 40.8766 0 45.6779V61.1799C0 62.9212 1.4164 64.3376 3.15766 64.3376V64.3376ZM45.2656 43.8438C42.0947 47.292 36.6744 47.2872 33.5077 43.8438C32.5928 42.8487 31.7225 41.8988 30.9076 41.005C30.919 41.0008 31.227 40.8784 31.8804 40.6253C32.5886 41.4064 33.395 42.2882 34.2883 43.2598C37.0373 46.2493 41.765 46.2487 44.5134 43.2598C45.4217 42.2719 46.2445 41.3715 46.9707 40.571L47.9249 40.9405C47.0949 41.85 46.2053 42.8216 45.2656 43.8438ZM46.1589 28.4202C46.1589 31.9847 43.2598 34.9615 39.6224 34.9681C39.6187 34.9681 39.6151 34.9681 39.6109 34.9681C39.6079 34.9681 39.6043 34.9681 39.6013 34.9681C35.6498 34.9633 32.8405 31.9172 32.8405 28.4202V25.8743C36.1597 24.5748 39.3053 22.047 41.6656 19.4511C43.0295 20.7614 44.6237 21.7173 46.1589 22.2429V28.4202ZM48.3733 29.7558C48.3745 29.7558 48.3763 29.7552 48.3781 29.7552C48.6252 29.7184 48.8687 29.6624 49.1062 29.5882C49.111 29.5864 49.1158 29.5858 49.1207 29.5846V34.6963C49.1207 34.6981 49.12 34.7005 49.12 34.7023C49.117 34.8494 48.9965 34.9681 48.8488 34.9681H45.5772C47.0003 33.6705 48.055 31.8503 48.3733 29.7558ZM34.9211 39.4464C35.7119 39.1402 36.2429 38.3645 36.2429 37.5158V36.6931C37.3266 37.0988 38.517 37.2832 39.6109 37.2832C40.6916 37.2832 41.7849 37.0753 42.7445 36.7112V37.5158C42.7445 38.3645 43.2761 39.1402 44.0674 39.4464L44.6569 39.6748C44.0903 40.2974 43.4725 40.9725 42.8095 41.6927C40.9712 43.6919 37.828 43.6901 35.9916 41.6933C35.3454 40.9899 34.7439 40.333 34.193 39.7284L34.9211 39.4464ZM66.0059 41.3015C64.0543 43.4243 60.9822 44.1367 58.3001 43.1091C57.6383 42.5076 56.7047 41.8579 55.8699 41.5354C55.6421 41.3124 53.7972 39.2884 53.5772 39.048L54.55 38.6707C55.1165 39.2951 55.756 39.9942 56.4588 40.7585C58.8166 43.3225 62.8718 43.3291 65.2356 40.7585C65.9523 39.9792 66.605 39.2649 67.1854 38.6255L68.1251 38.9895C67.4537 39.7248 66.7449 40.4981 66.0059 41.3015ZM63.4462 36.1302C63.4474 36.1362 63.4474 36.1416 63.4486 36.1477C63.4709 36.2911 63.5094 36.4297 63.5625 36.5623C63.7566 37.0487 64.1465 37.4483 64.6498 37.6436L64.8716 37.7292C64.4551 38.1861 64.0073 38.6743 63.5317 39.1914C62.084 40.7657 59.6086 40.7645 58.1621 39.1914C57.701 38.6899 57.267 38.2162 56.8638 37.7738L57.2001 37.6436C57.2393 37.6279 57.2773 37.6111 57.3147 37.5936C57.3213 37.5906 57.3279 37.5882 57.3339 37.5852C57.3647 37.5707 57.3936 37.5544 57.4225 37.5387C57.4358 37.5315 57.4497 37.5249 57.4623 37.5176H57.4629C57.4798 37.508 57.4955 37.4966 57.5117 37.4863C58.4767 36.8878 58.4231 35.9512 58.4231 35.4461C60.01 35.9765 61.8242 36.0084 63.4263 35.469C63.4257 35.8939 63.4214 35.9584 63.4462 36.1302V36.1302ZM56.627 31.4235C55.9712 30.5357 55.6047 29.4448 55.5993 28.3346C55.5993 28.3261 55.5987 28.3171 55.5987 28.3081V25.9068C58.4098 25.5355 59.7991 23.7659 60.4072 22.6479C60.4271 22.6117 60.4458 22.5762 60.4639 22.5418C62.2443 22.7178 63.5203 22.0681 64.3032 21.4515C64.9493 22.1928 65.6907 22.5647 66.2603 22.7504V28.2592C66.2603 33.3968 59.6291 35.4865 56.627 31.4235V31.4235ZM51.4351 27.9543C52.0149 27.1743 52.2645 26.2576 52.206 25.4041C52.6876 25.1094 52.9871 24.582 52.9871 24.0016V21.3635C52.9871 16.8485 56.6047 13.1478 61.0539 13.111C65.5026 13.1484 69.1208 16.8485 69.1208 21.3635V24.0016C69.1208 24.6658 69.5138 25.2607 70.1213 25.5168C70.4932 25.6736 70.7771 25.9665 70.9217 26.342C71.0658 26.7187 71.0513 27.1255 70.8807 27.4877C70.5577 28.1761 70.7385 28.9879 71.3207 29.4629C72.4436 30.3796 72.5002 31.6718 72.1784 32.5759C71.8589 33.4722 71.0013 34.4299 69.5529 34.4299H65.7407V34.1936C67.5633 32.723 68.5747 30.5152 68.5747 28.2592V22.1386C68.5747 21.4298 68.1022 20.8313 67.4301 20.6547C67.4211 20.6523 67.4127 20.6493 67.403 20.6469C67.3976 20.6456 67.3916 20.6444 67.3855 20.6432C67.3458 20.6342 67.3048 20.6258 67.2632 20.6191C66.9052 20.5655 66.2331 20.3503 65.7558 19.5161C65.725 19.4625 65.6913 19.4107 65.6545 19.3612C65.3972 19.0159 65.003 18.7899 64.569 18.7471C64.0778 18.6989 63.586 18.8923 63.2599 19.266C62.7542 19.847 61.829 20.4769 60.2993 20.1803C59.564 20.0381 58.8353 20.4389 58.5659 21.1332C58.2838 21.8577 57.349 23.5538 54.7651 23.6568C53.9346 23.69 53.2837 24.3656 53.2837 25.1956V28.3075C53.2837 28.3243 53.2849 28.3412 53.2849 28.3587C53.3023 30.7201 54.4186 32.8634 56.108 34.1918V34.4299H52.5544C52.1517 34.4299 51.7768 34.3558 51.4351 34.2099V27.9543ZM52.555 36.745H53.1137L51.1669 37.4996C51.1663 37.5002 51.1657 37.5002 51.1651 37.5002L48.31 38.6074L47.0654 38.1252C47.0648 38.1252 47.0648 38.1252 47.0648 38.1252L45.0595 37.3489V37.2832H48.8488C49.6089 37.2832 50.2911 36.9517 50.7643 36.4285C51.3272 36.6347 51.9299 36.745 52.555 36.745V36.745ZM49.8114 26.137C49.6046 26.7139 49.0676 27.1514 48.4739 27.3558V23.9263C49.4371 24.256 50.1585 25.1679 49.8114 26.137V26.137ZM29.8793 19.4957C29.8793 14.1905 34.1954 9.875 39.5 9.875C44.8046 9.875 49.1207 14.1905 49.1207 19.4957V21.698C48.935 21.6389 48.6602 21.5708 48.4348 21.5353C48.2973 20.8711 47.8031 20.3292 47.1461 20.1297C46.2939 19.8705 44.6201 19.1853 42.9904 17.5043C42.2159 16.7057 40.9483 16.7653 40.2395 17.5736C39.0293 18.9538 35.7782 22.326 31.7496 23.8136C31.0179 24.0836 30.5261 24.7894 30.5261 25.5693V28.4202C30.5261 30.8564 31.5314 33.2594 33.4209 34.9681H30.1512C30.0017 34.9681 29.88 34.8464 29.88 34.6969V19.4957H29.8793ZM30.1512 37.2826H33.9284V37.3489L33.2654 37.6056L30.6864 38.6056C27.3853 37.326 29.1115 37.995 23.2386 35.7185L22.892 35.5841V35.246H25.4566C26.263 35.246 27.0032 34.9458 27.5649 34.442V34.6969C27.5649 36.1223 28.7251 37.2826 30.1512 37.2826ZM10.2885 32.9315C9.89127 32.9315 9.55435 32.6615 9.46816 32.274L9.39764 31.9606C8.39291 27.463 7.52438 23.5791 9.36449 18.8706C12.2256 11.5494 17.2602 13.2575 17.4657 13.3316C17.7279 13.4299 18.0166 13.4299 18.2788 13.3316C18.2914 13.3268 19.5511 12.882 21.1387 13.2683C23.3772 13.8138 25.1407 15.6991 26.3799 18.8712C28.2201 23.5785 27.3521 27.4624 26.3468 31.9593L26.2769 32.274C26.1901 32.6609 25.8532 32.9315 25.4566 32.9315H24.1354C25.1534 31.62 25.7163 29.9836 25.7163 28.3081V23.9721C25.7163 23.9232 25.7133 23.8738 25.7085 23.8256C25.673 23.4851 25.5156 23.1638 25.2643 22.9282C24.9846 22.666 24.6061 22.5273 24.2234 22.54C24.2101 22.5406 24.1969 22.54 24.1836 22.5406C24.1716 22.5412 24.1565 22.54 24.1432 22.5394C23.3838 22.5177 20.158 21.2062 19.3498 18.4312C19.1846 17.8653 18.6591 17.4699 18.0708 17.4699C17.4826 17.4699 16.9564 17.8653 16.7912 18.4318C15.977 21.2303 12.7054 22.5412 11.9791 22.5412C10.9557 22.5412 10.4253 23.2548 10.4253 23.9721V28.3081C10.4253 29.9161 10.9497 31.5718 12.005 32.9315H10.2885ZM12.7397 28.3081V24.7508C14.2731 24.4036 16.6418 23.1849 18.0708 21.0718C19.5005 23.1849 21.8686 24.4036 23.4019 24.7508V28.3081C23.4019 31.3464 20.9579 33.5433 18.057 33.5433C15.1633 33.5963 12.7397 31.2415 12.7397 28.3081ZM21.466 37.4724C21.6679 37.6014 21.7812 37.6358 22.1368 37.7738C21.733 38.2162 21.299 38.6899 20.8379 39.1914C19.3896 40.7657 16.9148 40.7639 15.4683 39.1914C14.9927 38.6743 14.5455 38.1861 14.129 37.7292L14.3502 37.6436C15.0795 37.3615 15.5743 36.6455 15.5743 35.8571V35.4684C17.1685 36.0048 19.0412 35.9861 20.5775 35.4648C20.5769 35.8168 20.4769 36.8396 21.466 37.4724ZM11.8146 38.6255C12.395 39.2643 13.0477 39.9792 13.7644 40.7579C16.124 43.3237 20.1822 43.3243 22.5412 40.7579C23.244 39.9942 23.8835 39.2945 24.45 38.6707C24.8569 38.8286 24.6646 38.7538 25.3264 39.0106C23.0336 41.5221 23.08 41.4613 22.9053 41.6264C22.3049 41.897 21.5184 42.387 20.8102 43.0103C18.0648 44.1832 14.8927 43.5087 12.8633 41.3021C12.134 40.509 11.4367 39.7477 10.7785 39.0269L11.8146 38.6255ZM2.31445 45.6779C2.31445 42.5166 4.9598 41.2913 5.17377 41.1973L8.46403 39.9231C9.29699 40.838 10.2005 41.8253 11.1594 42.8686C13.0664 44.942 15.8058 46.0691 18.6814 45.8696C18.2498 46.8351 17.9659 47.9857 17.9659 49.3473V62.0225H9.07458V50.1206C9.07458 49.4817 8.55685 48.9633 7.91736 48.9633C7.27787 48.9633 6.76013 49.4817 6.76013 50.1206V62.0225H3.15766C2.69236 62.0225 2.31445 61.6446 2.31445 61.1799V45.6779Z" fill="#2575E6" stroke="#2575E6" stroke-width="0.5"/>
</g>
<defs>
<clipPath id="clip0">
<rect width="79" height="79" fill="white"/>
</clipPath>
</defs>
</svg>
