<svg width="26" height="26" viewBox="0 0 26 26" fill="none" xmlns="http://www.w3.org/2000/svg">
<path d="M14.2031 0.0139771C15.6834 2.15793 16.837 4.50997 17.626 6.99296C19.4315 6.70973 21.1704 6.10057 22.758 5.1953L23.2239 4.9064C21.0137 2.10928 17.7531 0.340888 14.2031 0.0139771Z" fill="#1F1F1F"/>
<path d="M16.262 9.086C15.1792 9.21 14.0902 9.27225 13.0004 9.27236C11.9105 9.2722 10.8215 9.21 9.73875 9.086C9.50871 10.0659 9.36221 11.0635 9.30078 12.0681H16.7C16.6386 11.0635 16.492 10.0659 16.262 9.086Z" fill="#1F1F1F"/>
<path d="M12.9991 18.5914C12.0809 18.5922 11.1634 18.6397 10.25 18.7339C10.9219 20.7402 11.8457 22.6532 12.9991 24.4269C14.1526 22.6532 15.0763 20.7402 15.7482 18.7339C14.8349 18.6397 13.9173 18.5922 12.9991 18.5914Z" fill="#1F1F1F"/>
<path d="M18.5539 13.9319C18.4971 15.0314 18.3484 16.1244 18.1094 17.1992C20.0935 17.5287 22.0017 18.2145 23.7418 19.2233L24.2683 19.5513C25.2677 17.8354 25.8595 15.9128 25.9979 13.9319H18.5539Z" fill="#1F1F1F"/>
<path d="M24.2683 6.44965L23.7418 6.7777C22.002 7.78809 20.0938 8.47538 18.1094 8.80644C18.3481 9.8794 18.4968 10.9704 18.5539 12.0681H25.9979C25.8593 10.0875 25.2676 8.16529 24.2683 6.44965Z" fill="#1F1F1F"/>
<path d="M9.30078 13.9319C9.36276 14.9366 9.50991 15.9342 9.74061 16.914C11.908 16.6664 14.0965 16.6664 16.2639 16.914C16.4934 15.934 16.6393 14.9364 16.7 13.9319H9.30078Z" fill="#1F1F1F"/>
<path d="M2.25611 6.7777L1.72957 6.44965C0.730322 8.16529 0.138584 10.0875 0 12.0681H7.44404C7.50116 10.9704 7.64984 9.87935 7.88857 8.80644C5.90411 8.47538 3.99588 7.78809 2.25611 6.7777Z" fill="#1F1F1F"/>
<path d="M8.37524 19.0079C6.56994 19.2913 4.83109 19.9 3.24328 20.8047L2.77734 21.0945C4.98737 23.8917 8.24818 25.6599 11.7981 25.986C10.3176 23.8425 9.16404 21.4908 8.37524 19.0079Z" fill="#1F1F1F"/>
<path d="M12.9991 1.57404C11.8458 3.34756 10.9221 5.26015 10.25 7.26607C11.1633 7.36075 12.0809 7.40831 12.9991 7.40864C13.9173 7.40831 14.8349 7.36069 15.7482 7.26607C15.0761 5.26015 14.1524 3.34756 12.9991 1.57404Z" fill="#1F1F1F"/>
<path d="M22.7568 20.8047C21.169 19.9001 19.4302 19.2913 17.6249 19.0079C16.8353 21.4909 15.6807 23.8426 14.1992 25.986C17.7492 25.6598 21.01 23.8917 23.22 21.0944L22.7568 20.8047Z" fill="#1F1F1F"/>
<path d="M2.78125 4.90646L3.2444 5.19536C4.83199 6.10064 6.5709 6.70974 8.37636 6.99302C9.1662 4.50982 10.3207 2.15783 11.802 0.0140381C8.25208 0.340895 4.99149 2.10928 2.78125 4.90646Z" fill="#1F1F1F"/>
<path d="M7.44404 13.9319H0C0.13842 15.9128 0.730158 17.8354 1.72962 19.5513L2.25616 19.2233C3.99627 18.2145 5.90444 17.5288 7.88857 17.1992C7.64946 16.1243 7.50077 15.0314 7.44404 13.9319Z" fill="#1F1F1F"/>
</svg>
