<svg width="17" height="17" viewBox="0 0 17 17" fill="none" xmlns="http://www.w3.org/2000/svg">
<path d="M12.3982 0H4.60174C2.0643 0 0 2.0643 0 4.60174V12.3984C0 14.9357 2.0643 17 4.60174 17H12.3984C14.9357 17 17 14.9357 17 12.3984V4.60174C17 2.0643 14.9357 0 12.3982 0V0ZM8.49998 13.1483C5.93686 13.1483 3.85169 11.0631 3.85169 8.49998C3.85169 5.93686 5.93686 3.85169 8.49998 3.85169C11.0631 3.85169 13.1483 5.93686 13.1483 8.49998C13.1483 11.0631 11.0631 13.1483 8.49998 13.1483V13.1483ZM13.2594 4.94791C12.502 4.94791 11.8859 4.33183 11.8859 3.57439C11.8859 2.81694 12.502 2.20074 13.2594 2.20074C14.0169 2.20074 14.6331 2.81694 14.6331 3.57439C14.6331 4.33183 14.0169 4.94791 13.2594 4.94791Z" fill="#1F1F1F"/>
<path d="M8.49934 4.84827C6.48589 4.84827 4.84766 6.48637 4.84766 8.49995C4.84766 10.5134 6.48589 12.1516 8.49934 12.1516C10.5129 12.1516 12.151 10.5134 12.151 8.49995C12.151 6.48637 10.5129 4.84827 8.49934 4.84827V4.84827Z" fill="#1F1F1F"/>
<path d="M13.2597 3.19751C13.0519 3.19751 12.8828 3.36664 12.8828 3.57442C12.8828 3.7822 13.0519 3.95132 13.2597 3.95132C13.4676 3.95132 13.6368 3.78232 13.6368 3.57442C13.6368 3.36651 13.4676 3.19751 13.2597 3.19751Z" fill="#1F1F1F"/>
</svg>
