<svg width="74" height="74" viewBox="0 0 74 74" fill="none" xmlns="http://www.w3.org/2000/svg">
<path d="M72.5547 3.00049H43.5337C42.7356 3.00049 42.0884 3.64755 42.0884 4.4458C42.0884 5.24405 42.7356 5.89111 43.5337 5.89111H71.1094V10.5891H2.89062V5.89111H30.4663C31.2646 5.89111 31.9116 5.24405 31.9116 4.4458C31.9116 3.64755 31.2646 3.00049 30.4663 3.00049H1.44531C0.647066 3.00049 0 3.64755 0 4.4458V12.0344C0 12.8327 0.647066 13.4797 1.44531 13.4797H3.45025V52.1637C3.45025 55.7768 6.38973 58.7163 10.0029 58.7163H35.5547V61.4463C33.5636 62.064 32.1135 63.923 32.1135 66.1145C32.1135 68.8089 34.3055 71.001 37 71.001C39.6945 71.001 41.8865 68.8089 41.8865 66.1145C41.8865 63.9232 40.4364 62.064 38.4453 61.4463V58.7163H63.9971C67.6103 58.7163 70.5497 55.7768 70.5497 52.1637V13.4797H72.5547C73.3528 13.4797 74 12.8327 74 12.0344V4.4458C74 3.64755 73.3528 3.00049 72.5547 3.00049V3.00049ZM37 68.1102C35.8995 68.1102 35.0042 67.215 35.0042 66.1144C35.0042 65.0139 35.8994 64.1187 37 64.1187C38.1005 64.1187 38.9958 65.0139 38.9958 66.1144C38.9958 67.215 38.1005 68.1102 37 68.1102ZM67.6591 52.1637C67.6591 54.1829 66.0164 55.8256 63.9971 55.8256H10.0029C7.98362 55.8256 6.34088 54.1829 6.34088 52.1637V13.4797H67.6591V52.1637Z" fill="#2575E6"/>
<path d="M36.172 5.64691C36.6889 5.99133 37.3849 5.96228 37.8724 5.57739C38.3526 5.19843 38.5397 4.53257 38.3335 3.95821C38.1264 3.38124 37.5614 2.98898 36.9476 3.00011C36.3544 3.0108 35.8157 3.39815 35.6147 3.95561C35.3934 4.56929 35.6234 5.28789 36.172 5.64691Z" fill="#2575E6"/>
<path d="M22.7347 48.2842C25.8795 48.2842 28.4379 45.726 28.4379 42.5816C28.4379 42.0213 28.3566 41.4797 28.2054 40.9678L30.9607 39.0899C32.6152 41.3118 35.2616 42.7536 38.2385 42.7536C40.175 42.7536 41.9718 42.1434 43.4465 41.1054L44.2447 41.9705C43.3607 43.1499 42.8364 44.6137 42.8364 46.1976C42.8364 50.0917 46.0049 53.26 49.8992 53.26C53.7938 53.26 56.9622 50.0919 56.9622 46.1976C56.9622 42.3034 53.7938 39.1354 49.8992 39.1354C48.6321 39.1354 47.4421 39.4709 46.4127 40.0575L45.5179 39.0876C46.6412 37.5778 47.3066 35.7083 47.3066 33.6861C47.3066 31.9508 46.8165 30.3275 45.9674 28.9478L47.7832 27.3282C48.6002 27.7591 49.5304 28.0032 50.5165 28.0032C53.7579 28.0032 56.3949 25.3663 56.3949 22.1252C56.3949 18.8841 53.7579 16.2474 50.5165 16.2474C47.2751 16.2474 44.6382 18.8843 44.6382 22.1252C44.6382 23.3283 45.0015 24.448 45.6242 25.3805L44.0811 26.7569C42.5018 25.4233 40.4622 24.6187 38.2382 24.6187C36.4351 24.6187 34.7535 25.1475 33.3399 26.0582L30.4887 22.8181C30.9638 21.9262 31.1095 20.9057 30.8979 19.9051C30.4062 17.5786 28.1138 16.0861 25.7862 16.5778C24.6592 16.816 23.6923 17.4788 23.0637 18.4443C22.4351 19.4098 22.2202 20.5621 22.4585 21.6893C22.8871 23.7164 24.683 25.1104 26.6773 25.1104C26.9718 25.1104 27.2709 25.0799 27.5705 25.0166C27.8428 24.9591 28.1058 24.8765 28.357 24.771L31.1885 27.9887C29.9266 29.5468 29.1699 31.5297 29.1699 33.6861C29.1699 34.6703 29.3275 35.6182 29.6188 36.5062L26.705 38.492C25.6774 37.4941 24.2765 36.879 22.7343 36.879C19.5896 36.879 17.0312 39.4372 17.0312 42.5816C17.0317 45.7262 19.5902 48.2842 22.7347 48.2842V48.2842ZM54.0719 46.1978C54.0719 48.498 52.2002 50.3695 49.8995 50.3695C47.599 50.3695 45.7274 48.4981 45.7274 46.1978C45.7274 43.8976 47.599 42.0262 49.8995 42.0262C52.2002 42.0262 54.0719 43.8976 54.0719 46.1978ZM50.5168 19.1381C52.1642 19.1381 53.5046 20.4782 53.5046 22.1252C53.5046 23.7725 52.1643 25.1126 50.5168 25.1126C48.8693 25.1126 47.5291 23.7725 47.5291 22.1252C47.5291 20.4782 48.8695 19.1381 50.5168 19.1381ZM44.4163 33.6863C44.4163 37.0922 41.6449 39.8631 38.2386 39.8631C34.8323 39.8631 32.0609 37.0922 32.0609 33.6863C32.0609 30.2804 34.8323 27.5095 38.2386 27.5095C41.6449 27.5093 44.4163 30.2803 44.4163 33.6863V33.6863ZM25.2872 21.0913C25.2085 20.7197 25.2794 20.3397 25.4866 20.0214C25.6939 19.703 26.0129 19.4845 26.3846 19.4059C26.4834 19.3849 26.582 19.3749 26.6791 19.3749C27.3368 19.3749 27.9289 19.8347 28.0704 20.503C28.1489 20.8746 28.0781 21.2544 27.8708 21.5727C27.6635 21.8911 27.3446 22.1096 26.973 22.1883C26.2057 22.3503 25.4493 21.8586 25.2872 21.0913V21.0913ZM22.7347 39.7698C24.2856 39.7698 25.5473 41.0312 25.5473 42.5818C25.5473 44.1323 24.2856 45.3938 22.7347 45.3938C21.1841 45.3938 19.9223 44.1324 19.9223 42.5818C19.9223 41.0312 21.1841 39.7698 22.7347 39.7698Z" fill="#2575E6"/>
</svg>
