<svg width="98" height="98" viewBox="0 0 98 98" fill="none" xmlns="http://www.w3.org/2000/svg">
<g clip-path="url(#clip0)">
<path d="M25.361 62.9199C29.5874 64.6885 33.8422 65.5728 38.0983 65.5726C42.3534 65.5724 46.6103 64.6881 50.8356 62.9199C52.1584 62.3664 53.0132 61.0843 53.0132 59.6537V45.8476L59.674 42.1824C60.2828 41.8474 60.6609 41.2077 60.6609 40.5127C60.6609 39.8176 60.2825 39.1779 59.674 38.8431L39.0165 27.4757C38.4419 27.1599 37.7553 27.1597 37.1795 27.4759L16.5228 38.8433C15.9139 39.1783 15.5359 39.8179 15.5359 40.5129C15.5359 41.2079 15.9141 41.8476 16.5226 42.1826L23.1835 45.8478V59.6537C23.1835 61.0843 24.0383 62.3664 25.361 62.9199ZM50.1421 59.6536C50.1421 59.9232 49.9792 60.1658 49.7274 60.2712C42.0112 63.5006 34.1859 63.501 26.4692 60.2712C26.2175 60.1658 26.0546 59.9234 26.0546 59.6536V47.4275L37.1803 53.5496C37.4676 53.7075 37.7828 53.7866 38.0983 53.7866C38.4137 53.7866 38.7293 53.7075 39.0172 53.5494L44.6266 50.4626V58.1152C44.6266 58.9082 45.2691 59.5508 46.0621 59.5508C46.8551 59.5508 47.4977 58.9082 47.4977 58.1152V48.8827L50.1421 47.4275V59.6536ZM38.0983 30.2476L56.7523 40.5127C55.2391 41.3454 47.9142 45.3764 46.2868 46.272L39.084 39.4692C38.5079 38.9248 37.5991 38.9503 37.0547 39.5272C36.5102 40.1035 36.5362 41.0121 37.1127 41.5565L43.645 47.7259L38.0987 50.778C36.1456 49.7033 21.6016 41.7 19.4444 40.5129L38.0983 30.2476Z" fill="#2575E6"/>
<path d="M25.6318 29.6421C26.4248 29.6421 27.0674 28.9995 27.0674 28.2065C27.0674 27.4135 26.4248 26.771 25.6318 26.771H19.8071C19.0141 26.771 18.3716 27.4135 18.3716 28.2065C18.3716 28.9995 19.0141 29.6421 19.8071 29.6421H25.6318Z" fill="#2575E6"/>
<path d="M93.9858 69.2686H92.8573V18.4971C92.8573 16.5354 91.2614 14.9395 89.2996 14.9395H22.6774C21.8844 14.9395 21.2419 15.582 21.2419 16.375C21.2419 17.168 21.8844 17.8105 22.6774 17.8105H89.2998C89.6784 17.8105 89.9864 18.1185 89.9864 18.4971V69.2686H87.1153V55.0096C87.1153 54.2166 86.4727 53.574 85.6798 53.574C84.8868 53.574 84.2442 54.2166 84.2442 55.0096V69.2686H13.756V23.5527H84.2442V49.2697C84.2442 50.0627 84.8868 50.7052 85.6798 50.7052C86.4727 50.7052 87.1153 50.0627 87.1153 49.2697V22.1172C87.1153 21.3242 86.4727 20.6816 85.6798 20.6816H12.3204C11.5274 20.6816 10.8849 21.3242 10.8849 22.1172V69.2686H8.0138V18.4971C8.0138 18.1185 8.32177 17.8105 8.70037 17.8105H16.9375C17.7305 17.8105 18.3731 17.168 18.3731 16.375C18.3731 15.582 17.7305 14.9395 16.9375 14.9395H8.70037C6.73865 14.9395 5.1427 16.5354 5.1427 18.4971V69.2686H4.01417C1.80075 69.2686 0 71.0693 0 73.2826V79.047C0 81.2604 1.80075 83.0613 4.01436 83.0613H32.651C33.444 83.0613 34.0866 82.4188 34.0866 81.6258C34.0866 80.8328 33.444 80.1902 32.651 80.1902H4.01436C3.38406 80.1902 2.87109 79.6773 2.87109 79.047V73.2826C2.87109 72.6523 3.38406 72.1395 4.01436 72.1395H37.6423L39.4557 75.9464C39.9346 76.9512 40.963 77.6005 42.0759 77.6005H55.9241C57.0373 77.6005 58.0658 76.9511 58.5445 75.9462L60.3579 72.1395H93.9858C94.6161 72.1395 95.1289 72.6523 95.1289 73.2826V79.047C95.1289 79.6773 94.6161 80.1902 93.9858 80.1902H38.3907C37.5977 80.1902 36.9552 80.8328 36.9552 81.6258C36.9552 82.4188 37.5977 83.0613 38.3907 83.0613H93.9858C96.1991 83.0613 98 81.2606 98 79.047V73.2826C98 71.0693 96.1992 69.2686 93.9858 69.2686ZM55.9523 74.7116C55.9473 74.7225 55.936 74.7294 55.9241 74.7294H42.0759C42.064 74.7294 42.0527 74.7223 42.0477 74.7114L40.8227 72.1395H57.1776L55.9523 74.7116Z" fill="#2575E6"/>
<path d="M60.3624 60.615H78.9087C80.1251 60.615 81.1149 59.6253 81.1149 58.4089V51.6852C81.1149 50.4688 80.1251 49.479 78.9087 49.479H60.3624C59.146 49.479 58.1562 50.4688 58.1562 51.6852V58.4089C58.1562 59.6253 59.146 60.615 60.3624 60.615ZM61.0273 52.3499H78.2438V57.7439H61.0273V52.3499Z" fill="#2575E6"/>
</g>
<defs>
<clipPath id="clip0">
<rect width="98" height="98" fill="white"/>
</clipPath>
</defs>
</svg>
