<svg width="17" height="17" viewBox="0 0 17 17" fill="none" xmlns="http://www.w3.org/2000/svg">
<g clip-path="url(#clip0)">
<path d="M14.1065 9.228C13.8316 8.88092 13.9102 8.7265 14.1065 8.41625C14.11 8.41271 16.3788 5.27763 16.6125 4.21442L16.614 4.21371C16.7301 3.82625 16.614 3.5415 16.0522 3.5415H14.1936C13.7204 3.5415 13.5022 3.78588 13.3854 4.0593C13.3854 4.0593 12.439 6.32455 11.1003 7.79292C10.6682 8.21721 10.4685 8.35321 10.2326 8.35321C10.1164 8.35321 9.93579 8.21721 9.93579 7.82975V4.21371C9.93579 3.74905 9.80333 3.5415 9.41162 3.5415H6.48904C6.19225 3.5415 6.01587 3.75825 6.01587 3.96013C6.01587 4.40071 6.68525 4.502 6.75467 5.74159V8.43113C6.75467 9.02046 6.64771 9.12884 6.41042 9.12884C5.77858 9.12884 4.24504 6.85438 3.33625 4.25125C3.15279 3.74621 2.97358 3.54221 2.49687 3.54221H0.6375C0.106958 3.54221 0 3.78659 0 4.06C0 4.54309 0.631833 6.94505 2.93817 10.1184C4.47525 12.2845 6.63992 13.4582 8.60908 13.4582C9.79271 13.4582 9.93721 13.1975 9.93721 12.7491C9.93721 10.6794 9.83025 10.4839 10.4231 10.4839C10.698 10.4839 11.1711 10.6199 12.2761 11.6647C13.5391 12.9035 13.7466 13.4582 14.4535 13.4582H16.3122C16.842 13.4582 17.1105 13.1975 16.9561 12.6833C16.6026 11.6016 14.2141 9.37675 14.1065 9.228Z" fill="white"/>
</g>
<defs>
<clipPath id="clip0">
<rect width="17" height="17" fill="white"/>
</clipPath>
</defs>
</svg>
